<svg id="Layer_1" data-name="Layer 1" xmlns="http://www.w3.org/2000/svg" viewBox="0 0 499.33 499.38"><defs><style>.cls-1{fill:#590401;}.cls-2{fill:#5d0500;}.cls-3{fill:#630600;}.cls-4{fill:#cd1a01;}.cls-5{fill:#680700;}.cls-6{fill:#6e0800;}.cls-7{fill:#5e0500;}.cls-8{fill:#930f00;}.cls-9{fill:#9e1100;}.cls-10{fill:#730900;}.cls-11{fill:#981000;}.cls-12{fill:#740900;}.cls-13{fill:#aa1300;}.cls-14{fill:#790a00;}.cls-15{fill:#a41200;}.cls-16{fill:#a91300;}.cls-17{fill:#6d0800;}.cls-18{fill:#6e0801;}.cls-19{fill:#710900;}.cls-20{fill:#b51600;}.cls-21{fill:#ae1400;}.cls-22{fill:#b41500;}.cls-23{fill:#7d0b00;}.cls-24{fill:#b31500;}.cls-25{fill:#7e0b00;}.cls-26{fill:#820c00;}.cls-27{fill:#b71601;}.cls-28{fill:#d31b00;}</style></defs><path class="cls-1" d="M719.8,615.43c-.46.22-.64.38-.82.38a.85.85,0,0,1-.6-.25c-.17-.28.11-.44.33-.43A5.82,5.82,0,0,1,719.8,615.43Z" transform="translate(-486.04 -134.35)"/><path class="cls-1" d="M688,611.92c.19-.43.42-1.1.91-.89.85.35.22.63-.21.79A3.19,3.19,0,0,1,688,611.92Z" transform="translate(-486.04 -134.35)"/><path d="M486,383.84C486,245.54,599.18,134.07,736.16,134.36c135.78.28,249.85,110.36,249.21,250.89A249.14,249.14,0,0,1,735.24,633.74C596.55,633.52,486.07,521.44,486,383.84Z" transform="translate(-486.04 -134.35)"/><path class="cls-2" d="M525.55,285a79.65,79.65,0,0,1,7.51,9.49,3.19,3.19,0,0,1-.48,2.49,7.79,7.79,0,0,0-1.12,2.23c-2.6,7.68-6.77,14.8-8.27,22.87-1.11,5.94-3.51,11.6-3.82,17.71a6,6,0,0,1-1.18,3.23,7.87,7.87,0,0,0-1.18,4.5c-.29,5.95-.23,11.91-1.78,17.79a22.23,22.23,0,0,0-.23,10.36,7.89,7.89,0,0,1-.52,5.58,5.7,5.7,0,0,0,0,5.53,6.77,6.77,0,0,1,.5,5.32,9.66,9.66,0,0,0,0,5.9,22.82,22.82,0,0,1,.76,6.91,58.49,58.49,0,0,0,1.32,12.23c.07.32.1-.06,0,.24-.91,4.11,1.24,7.77,1.75,11.68.41,3.19,1.89,6.17,2.6,9.34a17.47,17.47,0,0,1,.8,4.12,3.68,3.68,0,0,0,.34,2.2c1.72,2.44,1.47,5.39,2.29,8.06,1,3.25,2.8,6.19,3.83,9.45,1.89,5.94,4.91,11.43,7,17.31,1,3,3.52,5.18,4.76,8.14,1,2.29,2.25,4.44,3.13,6.79A14.52,14.52,0,0,0,547,500c2,1.88,2.9,4.44,4.34,6.65,3.13,4.82,6.77,9.23,10.23,13.78a14.2,14.2,0,0,1,2.28,3.56,2.85,2.85,0,0,0,.75,1.28c3.28,2.63,5.51,6.21,8.45,9.15,2.57,2.58,5.2,5.11,7.76,7.71a91.23,91.23,0,0,0,7.88,7.6,23.72,23.72,0,0,1,5,4.82,4.7,4.7,0,0,0,1.44,1.37c5.68,3.22,10,8.33,15.63,11.5,5.23,2.94,9.74,7,15.19,9.48,4.44,2,8.68,4.42,13.27,6.18a59.31,59.31,0,0,1,7.26,3.64,32.64,32.64,0,0,0,5.72,2.43,8.2,8.2,0,0,1,1.89.61c4,2.65,8.93,3.07,13.12,5.3a13,13,0,0,0,4.31,1.21,22.79,22.79,0,0,1,9.39,3.69,3.25,3.25,0,0,0,3,.57c5.84,2.37,11.7,4.69,17.5,7.14a119.46,119.46,0,0,0,23,6.79c1.07,2.81.57,3.62-2.34,3.73-1.5.06-3,0-4.49,0-.66,0-1.52.11-1.91-.4-1.73-2.24-4.09-1.41-6.34-1.7-4.13-.53-8.51.45-12.39-1.9-1.08-.65-2.42-.37-3.67-.2-2,.27-4.12.55-6.11-.36l-.33-.18c-2.25-1.66-4.6-2.94-7.56-2.31a1.82,1.82,0,0,1-1.2-.28c-5.78-3.15-12.32-3.88-18.51-5.71a48.71,48.71,0,0,1-6.41-2.72,79.57,79.57,0,0,0-8.8-3.53,31.56,31.56,0,0,1-10-4.9c-2.19-1.71-5.12-1.86-7.58-3.09a77.92,77.92,0,0,1-10.52-6.1c-3.76-2.68-8-4.76-11.74-7.44-5.45-3.91-10.85-7.9-16-12.25-3.08-2.61-6.4-5-9.33-7.78-4.37-4.17-9.2-7.85-12.9-12.75a60.34,60.34,0,0,0-6-6.31c-3.49-3.45-5.72-7.93-9.44-11.18-1.44-1.27-2-3.23-3.13-4.77-2.49-3.5-4.82-7.13-7.51-10.48a25.81,25.81,0,0,1-4.15-7,7.16,7.16,0,0,0-1.7-2.43,18.26,18.26,0,0,1-4.38-7.17c-1.36-3.9-3.64-7.41-4.61-11.46a2.38,2.38,0,0,0-.84-1.5c-2.23-1.38-2.67-3.78-3.3-6a44.13,44.13,0,0,0-3.95-9.89c-2.1-3.6-2.46-7.56-3.8-11.27-1.55-4.3-2.06-8.84-3.78-13.14-1.13-2.85-1.52-6.27-2.91-9.07s-.59-5-.55-7.53c.05-3-1.4-5.94-1.57-9a12.88,12.88,0,0,0-2-6.11c.73-6.23-1.54-12.3-1-18.53a25.8,25.8,0,0,1,.61-5.17c.9-3.14,0-6.27-.27-9.39-.35-3.72-.77-7.41.56-11.06.6-1.66.06-3.47.11-5.21a7.78,7.78,0,0,1,.92-4.31,4.15,4.15,0,0,0,.95-5.06A6.5,6.5,0,0,1,505,346a5.29,5.29,0,0,0,.7-2.86,3.87,3.87,0,0,1,.53-3.32,2.67,2.67,0,0,0,.94-1.82c-.15-2.94.93-5.71,1.21-8.6.24-2.5,1.43-4.74,2-7.15,1.07-4.2,3.2-8.07,4.15-12.31,1.39-6.18,4-11.82,6.78-17.47a28.13,28.13,0,0,0,2-6.1C523.61,285,524.19,284.42,525.55,285Z" transform="translate(-486.04 -134.35)"/><path class="cls-2" d="M757.43,613.75a60.45,60.45,0,0,1,3.47-8.93,31.55,31.55,0,0,1,9.05-1.46,22,22,0,0,0,6.8-1.32c3.6-1.21,7.41-1.73,11.09-2.77s7.43-2.27,11.23-3.06a10.18,10.18,0,0,1,1.18-.39c5.09-.28,9.3-3,13.75-5a33.69,33.69,0,0,1,3.31-1.09,86.58,86.58,0,0,0,18.09-8.3,13.36,13.36,0,0,1,3-1.16,8.8,8.8,0,0,0,4.49-2.56c.16-.19.32-.46.54-.51,3.84-.89,6.77-3.39,9.94-5.5,4.66-3.11,10.06-5.11,13.88-9.5,1.52-1.76,3.76-2.73,5.57-4.19,4-3.25,7.77-6.8,11.77-10A123.1,123.1,0,0,0,895,538.36a170.52,170.52,0,0,0,16.1-18.94c6-8.32,12.27-16.54,17.18-25.64,3.11-5.75,5.69-11.75,8.54-17.63a145.48,145.48,0,0,0,6.25-15.45c1.72-4.83,3.56-9.65,5.2-14.5a55.4,55.4,0,0,0,2.58-9.84c.34-2.36,1.39-4.6,1.88-7a30.32,30.32,0,0,0,.83-4.16,19.91,19.91,0,0,1,1.58-7.74,5.66,5.66,0,0,0,.14-4.41,5.4,5.4,0,0,1,.3-4.36,16.29,16.29,0,0,0,1.53-6.52c.49-8,.86-16,.61-23.95a12.48,12.48,0,0,0-.52-3.45c-.87-2.76-1.31-5.48-.26-8.31a3.33,3.33,0,0,0-.27-2.92c-1.7-2.59-1-5.46-1.12-8.23a24.45,24.45,0,0,0-1.2-7.08,36.91,36.91,0,0,1-1.48-8.55c-.21-2.57-.77-5.07-.81-6.93a58.92,58.92,0,0,1,.6,13.29c0,.89-.17,2-1.61,1.37.17-11.89.2-23.77-1.53-35.58a209.41,209.41,0,0,0-4.29-21.23c-.23-.9-1-1.88.14-2.73,2.74-.56,3.34,1.85,4.24,3.38,3,5.09,5,10.67,6.92,16.24a18.6,18.6,0,0,1,1.5,6.07,10.34,10.34,0,0,0,2.19,5.5,7.86,7.86,0,0,1,1.74,4.09c.15,5.87,2.51,11.17,3.95,16.72a35.27,35.27,0,0,1,.72,11.91,5.46,5.46,0,0,0,.19,2.95c2.85,5.89,3.19,12.32,2.72,18.54-.39,5.22.24,10.45-.57,15.62-.22,1.46.59,2.77.66,4.16.13,2.81.38,5.62-.55,8.41-1.12,3.36-.65,6.93-1.07,10.4-1.18,9.9-3.15,19.65-5.31,29.38A100.53,100.53,0,0,1,957,459c-.72,1.7-.94,3.55-1.56,5.25-2.37,6.44-4.66,12.93-8.24,18.86a4.83,4.83,0,0,0-.73,1.58c-1,5.37-4.62,9.51-6.93,14.27-2.59,5.32-7,9.51-9.15,15.07a5.1,5.1,0,0,1-.65,1.07c-5.83,8.26-12.07,16.22-18.56,24-1.9,2.26-4.19,4.27-6.33,6.35-4.83,4.69-9.81,9.23-14.39,14.17-.45.48-.75,1.14-1.36,1.44-5.75,2.79-9.32,8.45-15.09,11.33-2.08,1-3.87,3-5.8,4.49-3.4,2.66-7.52,4.32-10.43,7.61a2.82,2.82,0,0,1-2.32,1,4.22,4.22,0,0,0-2.95,1.18c-1.49,1.41-3.37,2.08-5.12,3-4.92,2.7-10.18,4.76-15,7.64-2.32,1.38-5,1.87-7.55,2.52a19.28,19.28,0,0,0-6,2.79,9.67,9.67,0,0,1-4.33,1.83c-1.93.21-3.8.46-5.21,2a1.27,1.27,0,0,1-.88.39c-6.46.59-12.21,4.07-18.69,4.63a2.58,2.58,0,0,0-1.18.39c-3.46,2.32-7.24,2.27-11.25,2.12-2.68-.09-5.39,1.3-8.21,1.52-3.21.25-6.3,1.4-9.64,1C757.31,616.25,757,615.44,757.43,613.75Z" transform="translate(-486.04 -134.35)"/><path class="cls-1" d="M541,262a6.29,6.29,0,0,1-8.88,2c-1.22-.88-.14-1.65.25-2.32a193.36,193.36,0,0,1,13-19.56c40.47-53.28,93.64-85.68,160.06-94.3,69.73-9,131.85,10,185.68,55.27a229.84,229.84,0,0,1,49.76,59.26c.38.65.72,1.32,1.12,1.95.77,1.24.67,2-1,2.13-2.33.15-4.65.35-7,.53-.92-1.84-1.59-3.81-3.18-5.27-1.4-1.27-1.29-3.32-2.43-4.84-2.69-3.59-5.07-7.41-8.25-10.62-2.46-2.48-3.67-5.9-6.31-8.26-4.87-4.34-7.75-10.38-12.77-14.7-3-2.62-5.72-5.77-8.69-8.56a41,41,0,0,0-6.17-4.62c-2.74-1.75-4.55-4.46-6.93-6.59a49.68,49.68,0,0,0-10.63-7.76c-3.29-1.62-5.64-4.2-8.7-5.89-4.75-2.61-9.53-5.25-14.09-8.12-4.09-2.57-9.06-3.37-12.63-6.83a8.94,8.94,0,0,0-3.35-1.62,87.64,87.64,0,0,1-13.51-5.52,4.76,4.76,0,0,0-2.64-.67c-2.66.27-4.77-1-6.92-2.22a2.79,2.79,0,0,0-.88-.47c-4.84-.88-9.46-2.6-14.14-4-3.18-.95-6.52-.2-9.53-1.66a4.76,4.76,0,0,0-2.71-.23,1.71,1.71,0,0,1-1.8-.55c-1.24-1.86-3-1.88-4.9-1.52a10.19,10.19,0,0,1-6.81-.69,7.3,7.3,0,0,0-3.44-.51,8.38,8.38,0,0,1-3.89-.69,4.83,4.83,0,0,0-1.93-.49q-15.09-.48-30.19-.29c-1.82,0-3.61.74-5.45.41-1.06-.19-2.44-.25-1.35-1.95a1.19,1.19,0,0,1,1.09-.49,1.24,1.24,0,0,0-1.06.45,2.63,2.63,0,0,1-2.4,1c-1.94,0-3.8.92-5.55,1-4.23.19-7.79,2.71-11.94,2.85-.25,0-.52.12-.74,0-3.85-1.61-7.21.49-10.72,1.42-2.42.64-4.91,1-7.35,1.48-4.8,1-9.41,2.72-14.23,3.65a9.56,9.56,0,0,0-3.83,1.77,9.09,9.09,0,0,1-3.69,2c-7.24,1-13.49,4.57-20,7.46-7.15,3.19-14.1,6.82-21.11,10.31a4.61,4.61,0,0,0-.89.44c-7.86,6.18-17.33,10.12-24.44,17.32-4.65,4.72-10.52,8-15,12.93s-9.69,9.56-14.27,14.63c-4,4.43-7.79,9-11.43,13.73-1.62,2.08-2.35,4.79-4.56,6.47a1.11,1.11,0,0,0-.37.9c.2,3.45-2.48,5.09-4.51,7.11C541.9,259.71,540.76,260.43,541,262Z" transform="translate(-486.04 -134.35)"/><path class="cls-3" d="M920,268l-1.48.06c-1-.35-1.95,0-2.95-.17a2.57,2.57,0,0,1-2.33-1.68c-1.46-3.29-3.91-6-6.11-8.79a277.8,277.8,0,0,0-19.27-22.57,167.64,167.64,0,0,0-14.76-13.44c-4.09-3.27-8-6.83-12.29-9.78-4.74-3.23-9.56-6.34-14.36-9.46-5-3.22-10.24-5.88-15.43-8.64a182.16,182.16,0,0,0-24.09-10.16c-5.62-2-11.29-4-17-5.55-4.85-1.32-10-1.81-14.88-3.09-8.35-2.2-16.93-2.17-25.35-3.43-6.14-.92-12.24.5-18.37,0-10.17-.8-20.14,1.38-30.21,2.13a17.13,17.13,0,0,0-4.82,1.25c-4.34,1.65-8.88,2.07-13.4,2.69a37.92,37.92,0,0,0-6.22,1.81A287.52,287.52,0,0,0,648,190c-12,5.23-23,12-33.79,19.2-3.06,2-5.9,4.39-9.34,5.8-.54.23-1.07.48-1.2,1.15-7.9,4.06-15.76,8.19-23.31,12.87-3,1.83-5.87,3.72-8.8,5.58-1.39-1.23-1.53-2.89-.1-3.48,3.49-1.44,5.14-4.83,7.8-7.13,2-1.73,3.5-4,5.8-5.45.28-.18,0,.09.19-.15,5.53-6,12.58-10.15,18.91-15.16A145.17,145.17,0,0,1,621.22,192c6.6-3.85,13.1-8,20.17-10.74,7.87-3.1,15.43-7,23.65-9.31,4.53-1.28,8.94-3.3,13.58-4.1,6.52-1.13,12.59-4,19.32-4.36,3.57-.22,7-2.11,10.76-1.75,2.44.24,4.94.54,7.13-1a1.17,1.17,0,0,1,.89-.13c5.69.42,11.32-.46,17-.77a31.53,31.53,0,0,1,10.63,1,3.63,3.63,0,0,0,1.47.26c4.84-.67,9.54,1.1,14.38.7a51,51,0,0,1,9.15.39,10,10,0,0,1,3.59.93c2.3,1.13,4.86,1.08,7.32,1.38,4.67.55,9,2.38,13.54,3.38A137.37,137.37,0,0,1,812.51,174c2.32.88,4.84,1.16,7.14,2.22a23.31,23.31,0,0,1,4.39,2.32,10.61,10.61,0,0,0,3.83,1.76,21.65,21.65,0,0,1,5.61,2.55c2.62,1.51,5.38,2.8,8,4.3,5.14,2.91,10,6.37,15.27,9,5.08,2.47,9.3,6.11,13.82,9.32,5.2,3.69,9.79,8.2,14.78,12.18,3.86,3.09,7.33,6.58,10.9,10,2.2,2.08,4,4.62,6,6.87,3.57,4,6.65,8.32,10,12.44s6.88,8.32,9.5,13.12a14.2,14.2,0,0,0,5.43,5.74c.74.4,1.3.82.69,1.73l-3.3.1C923.13,268.11,921.5,267.37,920,268Z" transform="translate(-486.04 -134.35)"/><path class="cls-3" d="M684,600.48c-1,.57-2.16,1.08-3,.21-2.25-2.24-5.37-1.89-8-2.62-3.53-1-6.84-2.55-10.36-3.39-5-1.19-9.28-3.88-14.08-5.49a48.78,48.78,0,0,1-9.1-4.31,51.92,51.92,0,0,0-8.12-4.1c-6.32-2.39-11.7-6.22-17.15-10-2-1.41-4.27-2.48-6.38-3.8-4.17-2.63-7.46-6.28-11.62-9-4.38-2.82-7.92-6.94-11.87-10.44-2.91-2.59-5.28-5.69-8.19-8.31a47.16,47.16,0,0,1-8.23-8.93,5.63,5.63,0,0,0-2.34-2.2,4.7,4.7,0,0,1-2.47-2.7c-1.27-3.28-3.89-5.52-5.91-8.22-3.3-4.43-6.81-8.78-9.31-13.73-1.15-2.27-3.29-3.63-4.32-6-1.5-3.49-2.71-7.13-4.83-10.37-.85-1.3-1.5-2.75-2.47-4a9.44,9.44,0,0,1-1.8-3.24c-.66-2.81-2.33-5.17-3.25-7.78-2.48-7-6-13.69-8-20.9-1.44-5.2-2.09-10.65-3.87-15.71-1.35-3.85-1.36-8-3.22-11.69a4.23,4.23,0,0,1-.4-2.42A15.29,15.29,0,0,0,515,415a25.88,25.88,0,0,1-.68-6.72,36.66,36.66,0,0,0-.82-10.86,8.63,8.63,0,0,1,.21-5.88,3.6,3.6,0,0,0-.16-3.15,8.93,8.93,0,0,1,0-8.81,3.72,3.72,0,0,0,.13-3.16c-.68-1.7-.29-3.43-.42-5.14-.35-4.77,1.68-9.13,2-13.75.2-3.38.39-6.77.36-10.15a7.86,7.86,0,0,1,1.21-4.73,4.77,4.77,0,0,0,1.18-2.71c-.18-5.9,2.14-11.35,3.5-16.89,1.59-6.43,3.06-13.1,6.84-18.85a16.68,16.68,0,0,0,1.49-4.47,9.87,9.87,0,0,1,3.22-5.23q2.22,2.77,4.42,5.56c1.36,1.93.84,3.6,0,5.8-2,5.62-4.06,11.25-5.92,16.94-2.18,6.69-3,13.66-5.07,20.29-1.62,5.11-1.24,10.36-2.28,15.47-.4,2-.38,4-1.28,5.81a2.72,2.72,0,0,0-.36,1.7c1.24,6-1,11.84-.4,17.82a128.71,128.71,0,0,1,.35,13.46c0,5.66,1.43,11,2,16.51a77.48,77.48,0,0,0,1.68,11.32c2.14,8.1,4,16.26,6.37,24.31a155.37,155.37,0,0,0,5.64,15.16,207.46,207.46,0,0,0,19,36.14,216.58,216.58,0,0,0,18.91,24.74C581,530.87,586,536.1,591.29,541c6.14,5.65,12.66,10.84,19.26,15.8a180.43,180.43,0,0,0,21.56,13.83c3.94,2.15,8.13,3.81,11.94,6.23A15.64,15.64,0,0,0,648.5,579c4,2.66,8,5.35,12,8C668.05,591.92,676,596.28,684,600.48Z" transform="translate(-486.04 -134.35)"/><path class="cls-3" d="M951,347.45c.89-3.11.34-6.29.43-9.44s0-6.43.12-9.63c1.38,6,2.53,12,3.72,18,.92,4.59,1.82,9,1.57,13.73a3.24,3.24,0,0,0,.53,1.63,7.64,7.64,0,0,1,.5,6.73,4.86,4.86,0,0,0-.17,3.19c2.26,7.69,1.2,15.55,1,23.33a62.51,62.51,0,0,1-.63,10.21A10.72,10.72,0,0,1,957,409a3.83,3.83,0,0,0-.42,3.36,7.52,7.52,0,0,1-.1,5.64c-2,4.34-1.41,9.15-2.84,13.59-1.74,5.41-2.68,11-4.46,16.48-1.12,3.43-2.16,7-3.49,10.3-2,5-3.35,10.32-6,15.15-2.18,4-4.6,8-5.42,12.7a2.8,2.8,0,0,1-.36.92c-4.89,7.88-9.38,16.06-14.82,23.54-3.68,5.06-6.83,10.6-11.46,15a7.58,7.58,0,0,0-1.25,1.56,19.42,19.42,0,0,1-5,6c-2,1.47-3.14,4-5,5.78-3.56,3.33-6.93,6.81-10.64,10-4,3.42-8.07,6.75-12.08,10.15-2.77,2.36-5.78,4.38-8.37,7s-6.49,3.86-9.63,6c-4,2.82-8.41,5.16-12.64,7.71a4.89,4.89,0,0,1-.86.49c-9,3.21-16.84,9-26.24,11.25A13.2,13.2,0,0,0,812.9,593c-5.74,2.94-11.95,4.23-18.16,5.73-3.25.78-6.54,1.8-9.8,2.71-4.44,1.23-8.85,2.92-13.44,3.14-3.51.18-7,1.58-10.6.28a56.45,56.45,0,0,1,3-8c5.4-1.93,11.24-2.14,16.63-4.21,2.87-1.1,6.08-.85,9-1.84,5.66-1.9,11.46-3.29,17-5.55,4.85-1.95,9.89-3.47,14.66-5.65,10.36-4.75,20.61-9.62,30.08-16.14a275.22,275.22,0,0,0,22.44-16.64A189.1,189.1,0,0,0,899.17,521c3.84-4.81,8.05-9.38,11.28-14.61,4.62-7.49,10-14.48,13.9-22.47,3.11-6.35,6.13-12.73,8.86-19.23a196.82,196.82,0,0,0,8.4-24.78,203.65,203.65,0,0,0,6.32-32.77c.65-6.59,1.26-13.22,1.3-19.87,0-5,0-10,.46-14.93.07-.74-.39-1.2-.64-1.78A42.52,42.52,0,0,0,950,361Z" transform="translate(-486.04 -134.35)"/><path class="cls-4" d="M789.77,382.92A54.89,54.89,0,1,1,680,382.63c0-30.3,24.64-54.64,55.27-54.63C765.26,328,789.77,352.71,789.77,382.92Z" transform="translate(-486.04 -134.35)"/><path class="cls-5" d="M603.65,216.14c.55-1.86,1.43-2.66,3-2.8a1.88,1.88,0,0,0,1.1-.48c4.6-5,10.66-7.87,16.2-11.48a176.37,176.37,0,0,1,22.31-12.09,224.85,224.85,0,0,1,21.43-8.67c7.59-2.6,15.27-5.15,23.36-5.85,1.73-.15,3.15-1,4.76-1.43a94.68,94.68,0,0,1,19.47-2.59,37.2,37.2,0,0,0,9.37-1.34.59.59,0,0,1,.24-.07,97.3,97.3,0,0,0,22.24.06c1.32-.14,2.89.58,4.37.8a21.64,21.64,0,0,0,6.72.11,2.79,2.79,0,0,1,1-.11c8.5,2,17.1,3.59,25.68,5.09a110.83,110.83,0,0,1,17.6,5c7.48,2.63,15,5.27,22.29,8.63,5.13,2.37,10.08,5.11,15.06,7.69a123.91,123.91,0,0,1,15,9.26c3.84,2.76,7.82,5.29,11.5,8.32,5.57,4.59,11.34,9,16.59,13.93a213.74,213.74,0,0,1,18.9,20.54c3.71,4.58,7.33,9.22,10.81,14,1,1.38,2.92,2.06,3,4.24,0,.43,1.88.76,2.89,1.13a96.33,96.33,0,0,1-11.5,1c-2.2-.46-3.08-2.49-4.29-4-2.78-3.41-5.17-7.25-8.37-10.17-4-3.63-5.84-8.77-10-12.22s-7.38-7.41-11.23-11c-5.85-5.44-12.38-10-18.63-14.87-4-3.11-8.3-6.12-13.27-7.75a2.66,2.66,0,0,1-1.27-.76c-2.51-3-6.06-4.42-9.42-5.82-4.55-1.9-8.41-5.09-13.1-6.6-4.89-1.58-9.33-4.37-14.46-5.27a7.79,7.79,0,0,1-2.5-1.1c-3.36-1.89-7.36-2-10.7-3.91a1.41,1.41,0,0,0-.72-.19c-7,.44-13.2-3.7-20.24-3.38a11.77,11.77,0,0,1-6.57-2.05c-2.25-1.43-4.92-1.38-7.53-1.16-6.05.5-12.1,1-18.18.91a56.88,56.88,0,0,0-9.22.4c-2.85.43-5.51-1.11-8.38-1.07-2.12,0-4.15.11-5.95,1.4-.27.19-.56.47-.87.47-4,0-7.85,1.39-11.84,1-1.21-.12-2.31-.26-3.32.53a4.2,4.2,0,0,1-2.59.75,5.25,5.25,0,0,0-2.69.43c-2.74,1.79-5.88,1.51-8.89,1.82-2.47.26-4.55,1.56-6.79,2.39-3.26,1.21-6.37,2.75-9.9,3.12a8.7,8.7,0,0,0-3.66,1.55,10.28,10.28,0,0,1-4.6,1.79c-1.82.17-3.22,1.3-4.73,2.17-3.14,1.82-6.62,2.9-9.85,4.53-1.51.76-3.52.34-4.63,2-9,2.89-18,5.88-26.77,9.5C609.1,213.7,606.39,214.94,603.65,216.14Z" transform="translate(-486.04 -134.35)"/><path class="cls-1" d="M757.43,613.75c1.8.81,3.52,1.87,5.63,1.49,3-.56,6.45-.39,9-1.6,3.33-1.57,6.31-.91,9.49-.75a4.7,4.7,0,0,0,2.88-.71c3.5-2.39,7.67-2.36,11.55-3.37a33.48,33.48,0,0,0,5.78-2.34,9.34,9.34,0,0,1,2.34-.68c1.85-.36,3.94,0,5.37-1.81a2.38,2.38,0,0,1,1.84-.6c3.43.31,6.16-1.17,8.64-3.26,2.31-2,5.44-1.32,7.93-2.66.21-.12.52,0,.73-.15,4.45-2.45,9.5-3.72,13.55-7,1.64-1.31,3.79-1.57,5.64-2.5a17,17,0,0,0,3.8-2.22c1.16-1,2.25-2.32,4.13-1.82a1.14,1.14,0,0,0,.9-.32c2.31-2.31,5.15-3.84,7.88-5.57,1.77-1.12,2.94-3.16,5.26-3.53a.87.87,0,0,0,.62-.4c1.67-3.55,5.7-4,8.29-6.34.37-.33,1-.63,1.07-1,.2-2.23,2.15-2.75,3.58-3.62,7.14-4.32,12.3-10.77,18.12-16.53,2.23-2.22,4.62-4.26,6.86-6.48s3.78-4.82,6-7a51.77,51.77,0,0,0,7.39-9.32c3-4.82,7.63-8.56,9.27-14.23a4.13,4.13,0,0,1,.94-1.72c5.15-5.07,7.05-12.2,11.32-17.83.88-1.16.72-2.82,1.32-4.23,2-4.69,4.13-9.38,6.24-14,3.48-7.56,5-15.73,8.66-23.14.77-1.57-1.28-3.33.35-4.1,2-.94,1.22-2.56,1.54-3.81,1.34-5.37,2.65-10.77,3.59-16.22s1.5-10.86,2-16.31a42.82,42.82,0,0,1,1.26-8.87,9.44,9.44,0,0,0,.12-5.44c-.82-2.74-.3-5.42-.43-8.12-.4-8.35,1.38-16.73-.42-25.05-.22-1.06-.17-2.27-.83-3.1-1.67-2.1-1.51-4.34-1.3-6.83.33-4.05.32-8.12-1.58-12-.57-1.15-.52-2.59-.78-3.9-.45-2.27-.71-4.62-2.26-6.51a3,3,0,0,1-.45-3.07c.67-1.77,0-3.28-.73-4.77a33,33,0,0,1-3.45-9.35c-.63-3.32-1.24-7.15-3.84-10.07-1-1.18-.76-3.22-1.54-4.83a40.34,40.34,0,0,0-5.34-8.37c1.34-1.38,2.74-2.69,4-4.14,1.53-1.79,2.26-1.18,3.08.64a212.26,212.26,0,0,1,12.41,33.74C986.39,401,970.46,475.91,914.66,541,876.18,585.9,826.5,611.71,767.85,620c-3.55.5-7.12.74-10.67,1.21-1.81.24-2.62-.1-1.82-2.07C756.09,617.33,756.75,615.54,757.43,613.75Z" transform="translate(-486.04 -134.35)"/><path class="cls-5" d="M648.5,579a12,12,0,0,1-6.59-1.66c-4.61-2.93-9.73-5-14.44-7.85s-9.29-6.08-14-9c-5.46-3.4-10.19-7.67-15.16-11.63A162.12,162.12,0,0,1,578,529.48c-3-3.34-6.23-6.53-8.81-10.09-2.77-3.82-5.91-7.35-8.64-11.22a253.64,253.64,0,0,1-14.95-24.37,92.54,92.54,0,0,1-5.83-12.65c-1.55-4.26-3.49-8.43-5.29-12.61a84.69,84.69,0,0,1-3.72-11.07c-1.65-5.9-3-11.93-4.72-17.77-2.62-8.94-3.12-18.15-4.62-27.19-1.25-7.52-.35-15.41-.36-23.14,0-2.82-.29-5.67.77-8.4a.7.7,0,0,0,.07-.48c-2.17-4.6.64-8.92,1.07-13.31.55-5.61.84-11.36,2.8-16.85,1.3-3.63,1.23-7.74,2.45-11.41,1.39-4.17,2.4-8.48,4.06-12.55,1.45-3.56,2.51-7.22,3.69-10.86.58-1.8,2.38-3.28,1.53-5.48a71.13,71.13,0,0,1,6.06,7.45,5.48,5.48,0,0,1,.09,4c-1.44,3.54-1.89,7.41-3.77,10.79s-2.2,6.94-2.71,10.56a50.78,50.78,0,0,1-1.67,7.48c-.85,2.85-1.7,5.65-1.47,8.9A20.28,20.28,0,0,1,532,360a7.15,7.15,0,0,0-.85,3.82c.16,3.45.83,7-1.4,10.14-.62.87-.43,2.09-.44,3.18,0,3.91,0,7.83,0,11.74,0,2.51-.13,5,1.57,7.16.63.8.47,1.93.42,2.92-.2,3.9-.3,7.77,1.15,11.51,2.32,6,1.52,12.49,2.88,18.63s2.65,12.15,5.25,17.87c1.22,2.7,1.39,5.78,2.65,8.52,1.8,3.9,2.77,8.16,5.38,11.72,1.22,1.66,1,4,2,5.83,3.61,6.54,6.59,13.4,10.9,19.59,2.84,4.09,5.35,8.41,8.45,12.33,1.53,1.94,3.36,3.66,4,6.25a4.88,4.88,0,0,0,2.44,2.76,13.29,13.29,0,0,1,4.1,4c2.78,4.08,6.37,7.48,9.68,11.07a98.2,98.2,0,0,0,8.57,8c2.21,1.89,4.47,3.72,6.54,5.78a35.1,35.1,0,0,0,6.87,5.35,41.43,41.43,0,0,1,9.3,7.83c.57.62.93,1.63,2.08,1.47,2.55,1.61,4.53,3.87,6.64,6A194.28,194.28,0,0,0,648.5,579Z" transform="translate(-486.04 -134.35)"/><path class="cls-6" d="M638.62,203.06c-.56-.24-1.71-.56-.34-1.1,6-2.38,11.47-6,17.46-8.32,5.28-2,10.47-4.37,16-5.67a28,28,0,0,0,8-3.23,5.7,5.7,0,0,1,2.62-.67,37.14,37.14,0,0,0,8.43-1.61c2.22-.74,4.69-.66,6.66-2.27a2.08,2.08,0,0,1,1.69.05c2,.81,3.82.44,5.84.08,3.13-.57,6.26-.41,9.29-2.08,2.48-1.37,5.63-.63,8.35,0a32.15,32.15,0,0,0,7.38.39q12.75-.06,25.44-1a14.23,14.23,0,0,1,8.87,1.88,12.29,12.29,0,0,0,5.73,1.47c4.45.19,8.75.73,12.78,2.76a2.54,2.54,0,0,0,1.21.26c6.62-.34,12.19,3.07,18.23,4.88s11.65,4.66,17.59,6.65a8.57,8.57,0,0,1,3.07,1.59c2.5,2.21,5.86,2.71,8.64,4.34,3.07,1.81,6.47,2.92,9.16,5.64,1.7,1.72,4.56,2.49,6.85,3.8a91.13,91.13,0,0,1,16.6,12.25c1.5,1.38,3.64,1.77,5.07,3.1,4.43,4.14,8.73,8.42,13,12.69,2.13,2.11,4.16,4.31,6.22,6.48a13.81,13.81,0,0,1,1.65,1.87c4.47,6.71,10.28,12.35,15.06,18.81a14.41,14.41,0,0,1,1.72,3L899,270c-.73-.45-1.46,0-2.18,0-1.26.1-2.26-.18-2.67-1.55a4.34,4.34,0,0,0-.73-1.31,174.08,174.08,0,0,0-18.24-21.63A220.58,220.58,0,0,0,856,229.06a136,136,0,0,0-18.72-12.82c-5.74-3.16-11-7.29-17.19-9.5-6.82-2.44-13.1-6.18-20-8.26-9.45-2.85-18.91-5.71-28.7-7.35a233.54,233.54,0,0,0-37.69-3.36,22.89,22.89,0,0,0-7.62,1.11,5.36,5.36,0,0,1-2.71.29,39.67,39.67,0,0,0-13.18.26c-6.27,1-12.56,1.85-18.75,3.49a43.17,43.17,0,0,1-10,1.62,2.35,2.35,0,0,0-1.83.54c-5.83.89-11.67,1.7-17.48,2.67C654.22,199.07,646.42,201.08,638.62,203.06Z" transform="translate(-486.04 -134.35)"/><path class="cls-7" d="M927.94,267.45c-3.68-.9-5.64-3.9-7.26-6.79-3.19-5.73-7.57-10.53-11.5-15.67-3.13-4.09-6.24-8.2-9.67-12-4.1-4.57-8.23-9.14-13.2-12.86-2.91-2.18-5.53-4.75-8.35-7.06-3.78-3.11-7.42-6.4-11.59-9a7.52,7.52,0,0,1-1.07-.63A39.24,39.24,0,0,0,855,196.58c-4.5-2.06-8.25-5.31-12.67-7.48-4-1.95-7.65-4.8-11.68-6.24-5.94-2.13-10.93-6.4-17.4-7.25-2.42-.32-4.74-1.56-7-2.51-7.12-3-14.7-4.29-22-6.4-3.12-.89-6.79-.55-9.85-1.72-6.31-2.41-12.8-1.44-19.2-2.09-4.34-.44-8.73-.07-13.07-1.16-6.23-1.57-12.58-.16-18.88.16-1.89.1-3.74.93-5.65.11a.91.91,0,0,0-.72,0c-3.18,2.47-6.79.72-10.18,1.07a4,4,0,0,0-1,.05c-6,2.15-12.63,1.54-18.61,4.16-3.3,1.45-7.11,1.48-10.64,2.53-5.08,1.51-10,3.49-15.12,4.85-6.47,1.72-12.28,5.07-18.44,7.53a81.37,81.37,0,0,0-17.49,9.22c-3.81,2.73-8.41,4.38-12.29,7.12-6.23,4.4-12.56,8.68-18.28,13.77a11.81,11.81,0,0,1-1.81,1.32c-4.46,2.72-7.91,6.62-11.53,10.27-2.25,2.26-5.11,4-6.46,7.18a2.07,2.07,0,0,1-1.45.84c-1.63.26-1.94,1.36-2,2.71-3.71,3.11-7.84,5.68-11.37,9-.55.07-1,.24-1.17.84l-2.35,2.15c-1.47.44-2,0-2.18-1.63-.2-2.3.67-3.89,2.11-5.59,2.73-3.21,6.23-5.76,8.13-9.72.74-1.55,2.51-2.34,3.74-3.57,3.62-3.6,6.72-7.78,11.09-10.58,2.51-1.61,5.67-1.65,7.49-3.22-.79,0-1.21-.89-.86-2.15a4.17,4.17,0,0,1,2-2.5c1.53-.9,2.6-2.4,4-3.34,4.22-2.88,7.55-7,12.53-8.84,1.74-.63,2.12-.37,2.2,1.73.64-4.27,1.59-5.07,6.06-5.12.15.3.39-.34.2-.07,0,0-.06,0-.11,0-1.29-1.73-.22-2.72,1.15-3.59,2.12-1.35,4.66-1.81,6.76-3.2,2.5-1.64,5-3.36,8.11-3.4a1.16,1.16,0,0,0,.92-.36c1.72-2.81,4.42-3.72,7.49-4.11.86-.11,1.45-1.09,2.06-1.76a6.81,6.81,0,0,1,3.39-2,13.88,13.88,0,0,0,5-2.15c1.35-1,3.07-.75,4.6-.42a5.25,5.25,0,0,0,5.21-1.65c2.51-2.59,5.33-4.15,9.14-3.32,1.78.39,3.17-.8,4.49-1.82,3.47-2.68,7.46-3.5,11.73-3.33a1.63,1.63,0,0,1,1.79,1.38c.12.73.12.73-1.15,1.47,2-1.5,4.93.24,6.86-1.31-1.19.25-2.57,1-4.21.64s-2.15-1.3-1.07-2.63c1.49-1.82,3.67-2.31,5.79-2.47,3.38-.26,6.8,0,10.19-.58a5.79,5.79,0,0,1,4.07.81,10.44,10.44,0,0,0,8.44,1c.63-.18,1.3-.08,1.93-.22-2.14.22-4.23.84-6.43.57-1-.13-2.16-.07-2.24-1.44a2.08,2.08,0,0,1,2-2.18c2.62-.45,5.27-.77,7.92-1.06a211,211,0,0,1,25.89-1.08c6.77.08,13.36,1.58,20.07,2.14a2.06,2.06,0,0,1,2.12,2.29c-.09,1.62-1.55,1.49-2.41,1.35-2.15-.35-4.33,0-6.14-.4a79,79,0,0,0,10,.27c.29,0,.74.15.8-.35.28-2.36,2.16-1.83,3.48-1.69,3.78.39,7.53,1.07,11.33,1.43a3.13,3.13,0,0,1,1.61.61,1.85,1.85,0,0,1,.81,2.18c-.26.79-.92.88-1.74.93s-1.56-.29-2.35-.19c2.59.18,5.21.66,7.47-1.21a1.49,1.49,0,0,1,1-.25c4.77.11,9.44.66,13.06,4.19,1.53,1.49,2.83,2.38,5,1.08,1.72-1,3.44.28,4.66,1.13,2.71,1.88,5.95,1.66,8.78,2.83,4,1.63,7.8,3.59,11.65,5.48a24.6,24.6,0,0,0,3.35,1.62,56,56,0,0,1,14.23,7.38,13.49,13.49,0,0,0,5.67,2.5,2.58,2.58,0,0,1,2.26,2.52,1.68,1.68,0,0,1-1.23,1.81c2.24-2.51,4.15-.11,6.28,1.14a51,51,0,0,0,4.92,2.87c2.12.92,2.38,1.93,1.56,3.77.91-1.28,2.24-.94,3.14-.17,3.71,3.13,8.31,5.05,11.51,8.94A23.36,23.36,0,0,0,888,211.8,3.46,3.46,0,0,1,889.7,215c-.1,1.89,1,2.76,2.68,3a6.22,6.22,0,0,1,5.18,3.77c.29.66.91.65,1.36,1a6.43,6.43,0,0,1,2.94,3.87c.4,1.84,1.33,3.16,3.43,3.42,1.59.2,2.58,1.41,3.59,2.54,5.42,6.09,10.13,12.73,15,19.25.76,1,1.65,1.94,1,3.35,0,.06-.15.13-.11.14,3.44,1.17,4.5,4.35,6,7.14a7.79,7.79,0,0,0,2.1,2.74c.66.48,1.17,1,.69,1.85A19.16,19.16,0,0,1,927.94,267.45Z" transform="translate(-486.04 -134.35)"/><path class="cls-8" d="M697.58,517.26c1.24,3.36,2.5,6.7,3.72,10.06.21.59.76,1.29.21,1.85s-1.27.09-1.9-.06a136.93,136.93,0,0,1-40-16Q592.23,471.9,586.41,393A137,137,0,0,1,589,356.48a3.38,3.38,0,0,1,1-2.26c2.83,2.74,5.94,5.18,8.45,8.28.7,4-.55,7.94-.8,11.91-.4,6.41-.72,12.8.12,19.17.78,6,1.38,12,2.59,17.86a7.79,7.79,0,0,0,1.75,3.81c1.5,1.67.84,3.82,1.07,5.74a37,37,0,0,0,6.15,16.37,3,3,0,0,1,.75,1.54c.15,4.82,2.28,8.75,5.41,12.24.17.19.41.38.43.61.29,4,3.75,6.36,5.27,9.73a8.27,8.27,0,0,0,2.15,2.73c2.84,2.54,5.51,5.22,7,8.81a7.77,7.77,0,0,0,1.94,2.27,24.52,24.52,0,0,1,4.43,5.36,5.1,5.1,0,0,0,1.65,1.86c4.88,3.12,8.52,7.67,13,11.22a20.31,20.31,0,0,0,6.88,4,4.85,4.85,0,0,1,2.52,1.9,10.11,10.11,0,0,0,6,4.14,2.06,2.06,0,0,1,1.15.45c2.88,3,6.78,4.48,10.43,5.7,4.56,1.53,8.7,4.48,13.75,4.54a5.15,5.15,0,0,1,2.45,1.16C695.62,516.16,696.29,517.26,697.58,517.26Z" transform="translate(-486.04 -134.35)"/><path class="cls-9" d="M823.49,285.47l-12,3.49c-3.54.84-6.05-.58-8.79-2.93-4.74-4.08-10.6-6.43-16.31-9-3.85-1.74-7.77-3.3-11.66-5a6.6,6.6,0,0,0-1.36-.61c-4.85-.84-9.33-3-14.16-3.91-7.3-1.39-14.75-1.22-22.09-2.25-2.16-.3-4.31.29-6.46.44-6.21.46-12.49.34-18.54,2-5.42,1.48-11,2.6-16.14,5-3.06,1.4-6.58,1.74-9.6,3.43-4.69,2.62-10.09,4.06-13.84,8.26-3.55.8-5.86,4.16-9.53,4.68-1.17.16-2.39-.26-3.58.08l-12.52-2.48c-.49-1-.07-1.57.89-1.88a4.7,4.7,0,0,0,2.29-1.45c4.08-5.1,10.21-7.66,14.87-12,4.19-.79,6.82-4.39,10.82-5.77,5-1.73,9.46-4.89,14.6-6.32,6.25-1.73,12.39-3.76,18.57-5.72a1.34,1.34,0,0,1,.48-.11c9.69.51,18.91-3.87,28.69-2.69,2.63.32,5.29.09,7.88,1,4.29,1.45,8.88,1.23,13.28,2.06,3.87.74,7.92.63,11.57,2.57a15.12,15.12,0,0,0,4.84,1.15,14.38,14.38,0,0,1,6.74,2.34,4.57,4.57,0,0,0,1.31.73c6.54,2.07,12.19,6,18.35,8.85,3.54,1.66,6.73,4,10.08,5.94a43.07,43.07,0,0,1,6.1,5c1.54,1.36,2.68,3.2,4.87,3.75C823.79,284.21,823.87,284.87,823.49,285.47Z" transform="translate(-486.04 -134.35)"/><path class="cls-8" d="M638.53,285c-2.7-.49-5.4-1-8.11-1.46-2.24-.35-1.63-1.19-.53-2.3,3.69-3.74,7.52-7.32,11.54-10.69,57.93-48.46,144.07-44.94,197.89,8.08a20.38,20.38,0,0,0,2.64,1.9l-.42,1-9.55,2c-2.85-.15-4.84-1.62-6.93-3.55-4.15-3.82-8.09-8-13.43-10.35-2.88-1.28-4.9-3.92-7.85-5.23-6.67-3-12.72-7.19-19.77-9.36a10.35,10.35,0,0,0-4.36-.86,2.27,2.27,0,0,1-1.88-.51,10,10,0,0,0-6.66-2.41,2.55,2.55,0,0,1-1.44-.35c-4.2-3-9.15-2.75-13.92-3.05a49.34,49.34,0,0,1-9.37-1.19,14.94,14.94,0,0,0-6.18-.14,26.52,26.52,0,0,1-8.93-.09,25.28,25.28,0,0,0-9.42.19c-4,.83-8,1.24-12.08,1.7a6,6,0,0,0-2,.3c-3.38,1.73-7.29,1.6-10.73,3.1a9.23,9.23,0,0,0-2.83,1.53,2.91,2.91,0,0,1-2.5.8,6.62,6.62,0,0,0-5.43,2,3.65,3.65,0,0,1-2.65,1.07,14.52,14.52,0,0,0-6.16,1.8c-6.37,3.07-12.17,7.09-18.38,10.43a17.89,17.89,0,0,0-3.5,2.79c-4,3.73-9.1,6.16-12.85,10.22C641.6,283.62,640.54,285.06,638.53,285Z" transform="translate(-486.04 -134.35)"/><path class="cls-9" d="M607.61,370.43,616.9,378a4.8,4.8,0,0,1,.55,3.48c-1,4.37-.17,8.78,0,13.17a74.2,74.2,0,0,0,1.46,11.59c.38,1.95.49,4,1.84,5.62a2.08,2.08,0,0,1,.43,1.15c.8,8.09,4.18,15.26,7.58,22.51,1.94,4.14,4.3,8,6.42,12a43,43,0,0,0,8.63,11.51c2.27,2.1,3.66,5.07,5.79,7.42a38.55,38.55,0,0,0,9.85,8.33c1.74,1,2.49,2.88,4.13,3.94,5.22,3.38,10.24,7,15.82,9.88,2.82,1.45,6.47,1.61,8.51,4.56.25.36.75.25,1.16.13,2.19,5,3.68,10.32,5.51,15.48.35,1.18,0,1.95-1.3,1.46-3.79-1.43-7.65-2.75-11.33-4.46-3.13-1.47-6.13-3.23-9.19-4.86a72.39,72.39,0,0,0-8.09-3.87c-2.37-.91-4.21-2.89-6.15-4.5-3.33-2.76-6.32-5.84-10.28-7.83-2-1-3.07-3.21-4.83-4.65-5-4.09-8.45-9.52-12.5-14.46a114.35,114.35,0,0,1-11.29-16.7c-2.38-4.27-4.35-8.79-6.46-13.22-2.66-5.58-3.81-11.68-5.9-17.46a62.82,62.82,0,0,1-2.58-11.64c-.52-3.32-.69-6.72-1.55-10a18.83,18.83,0,0,1,.1-9.4,11.51,11.51,0,0,0,0-6.4c-.79-2.61-.49-5.29-.33-7.94C603,370.87,604.65,370.13,607.61,370.43Z" transform="translate(-486.04 -134.35)"/><path class="cls-10" d="M679.65,195.08l-2.91-.17c12.41-2,23.67-6.21,35.6-7.11a10.68,10.68,0,0,1,1.23-.17c9.81.53,19.56-2.16,29.31-1,6.93.85,13.9.68,20.83,1.94,6.7,1.21,13.46,2.15,20.06,3.85,4.17,1.07,8.3,2.37,12.43,3.52,5.82,1.61,11.23,4.09,16.71,6.43,6.44,2.77,12.91,5.36,18.93,9.23,4.69,3,9.85,5.53,14.54,8.65,8.09,5.39,15.37,11.82,22.85,18,6.39,5.31,11.38,11.87,17.23,17.64,2,2,3.4,4.76,5.22,6.9,2.15,2.53,3.18,6.5,7.27,7.1l-10.46,1.54a5.57,5.57,0,0,1-3.49-2c-4.13-4.67-8.12-9.49-12.37-14a149,149,0,0,0-15.32-14.59c-4.08-3.28-8.15-6.58-12.43-9.57A170,170,0,0,0,826,219.66c-5.76-3-11.6-5.79-17.38-8.72-5-2.54-10.79-3.39-16-5.53-6.53-2.67-13.55-3.25-20.16-5.45-3.35-1.1-6.93-.53-10.33-1.55-5.59-1.67-11.51-.88-17.18-2-4.41-.86-8.9-.63-13.35-1.42a28.57,28.57,0,0,0-9.65-.47l-18-.6a17.29,17.29,0,0,0-5.42,0l-5.42.11c-2.17.62-4.44-.21-6.61.45l-1.79.06c-1,.47-2.16-.07-3.19.39Z" transform="translate(-486.04 -134.35)"/><path class="cls-7" d="M933.49,267a6.25,6.25,0,0,1-4.28-4.47,9.93,9.93,0,0,0-3-4.56c-.94-.83-1.54-1.85-3.1-.93-.94.55-1.87-.25-2-1.24-.21-1.32.84-.77,1.52-.81,1.7-.1,1.13-1.12.59-1.85-2.61-3.55-5.47-6.94-7.89-10.61a85.48,85.48,0,0,0-7.31-9c-1-1.18-2-2.16-3.69-2.21a3.4,3.4,0,0,1-3.44-3,6.81,6.81,0,0,0-1.07-3c-.86-1.06-1.77-2.25-3.13-.5-.38.49-.89.88-1.48.38a1.09,1.09,0,0,1,0-1.75c1.92-1.91.28-2.82-1.11-3.54a16.68,16.68,0,0,0-3.37-.89c-1.9-.51-3.24-1.42-2.56-3.72a1.94,1.94,0,0,0-.56-2.05c-3.35-3.33-6.44-7-10.79-9.08-1.85-.9-2.9-2.74-4.7-3.68-1.07-.56-2.09-1.15-3.19-.13-1.65,1.53-2.44.32-3.29-1,.66-1,2.49.73,2.51-1.11,0-1.28-1.2-1.65-2.19-2.12a37.38,37.38,0,0,1-5.92-3.67c-.52-.38-1.17-1-1.77-.44s.14,1,.4,1.48.74,1.07.09,1.54-1.32.07-1.78-.43c-1.23-1.32-2.28-2.83-4.23-3.34.3-.38.38-.55.5-.61.86-.46,2.55.3,2.52-1.33,0-1.23-1.4-1.18-2.34-1.43-3.46-.91-6.32-3-9.32-4.8-2.61-1.58-5-3.45-8.07-4.28-4.86-1.33-9-4.2-13.46-6.4a12.2,12.2,0,0,0-2-.92c-3.63-1-7.5-1.22-10.66-3.67-.95-.74-2-.56-3.16.21-1.58,1-3.48,1.18-4.79-.81-2.86-4.31-7.48-4.55-11.94-5.13a1.46,1.46,0,0,0-1.16.28c-.57.78-.85,1.81-2.18,1.59-2.95-.48-6-.47-8.84-1.52-.31-.12-.58-.4-.41-.77a1.09,1.09,0,0,1,1.07-.49c1.42,0,2.9.73,4.32-.85L769,158.48c.21,1.45,1.86.7,1.92,1.86-5.56.71-11-.09-16.53-.81-.69-.1-1.8,0-1.69-1s1.28-1,2-.78a19,19,0,0,0,7.15.77c.53,0,1.35.1,1.29-.75,0-.58-.73-.58-1.21-.65-11.63-1.81-23.34-2.82-35.06-1.88a138.77,138.77,0,0,0-16.35,1.8c-.62.12-1.37,0-1.9,1.08a14.61,14.61,0,0,0,7,.13c.49-.08.94-.35,1.43-.44.8-.15,2-.48,2.15.52s-1.09,1-1.85,1.08c-3.28.12-6.37,2-9.79.94-1.33-.42-2.78-.41-4-1.26a2.58,2.58,0,0,0-1.89-.42c-3.76,1-7.6.38-11.38.66a7.26,7.26,0,0,0-2,.39c-1,.37-2.4.86-2,2.09s1.59.21,2.43.1c1.23-.16,2.46-.4,3.7-.55.64-.07,1.56-.28,1.72.53s-.81.86-1.39,1a32.15,32.15,0,0,1-7.37,1.14,21.36,21.36,0,0,0-3.61.95c-.53.14-1.26.59-1.49-.19s.6-.86,1.11-1.09,1.47-.27,2-1.46a15.29,15.29,0,0,0-8.09,1.11,33.6,33.6,0,0,0-4.45,2.76c-1.71,1.16-3.31,1.92-5.56,1.17s-4.4.6-6,2.24c-2.28,2.33-4.61,4.16-8.11,2.62a1.53,1.53,0,0,0-1.22,0c-2.7,1.88-6.06,2.13-8.88,3.68a2.72,2.72,0,0,0-1.07,1c-1,2-2.28,3.07-4.88,2.39-1.64-.43-3,.72-2.74,2.85.13.89-.15,1.78-1.09,1.46-4.33-1.49-7.25,1.5-10.48,3.26-1.92,1-4.12,1.35-5.9,2.65-.53.39-1.31.72-1,1.51s1,.25,1.48.05,1.2-.55,1.5.2a1,1,0,0,1-1,1.42,4,4,0,0,0-4.17,2.47,1,1,0,0,1-1.29.49c-1.08-.48-.18-1.29-.24-2-.91,0-1.64.8-1.57,1.28.37,2.82-2.16,3.18-3.55,4.49-.41.39-.9,1-1.45.4s.08-1.05.53-1.42,1.2-.58,1.54-1.58a13.6,13.6,0,0,0-5.08,2.55c-3.81,3.29-7.87,6.27-11.83,9.38-.79.63-1.82,1.42-1.12,2.45,1.07,1.56,2.09-.49,3.39-.39-.23.38-.33.81-.56.89-2.85,1-4.83,3.74-8.06,4a6.44,6.44,0,0,0-4.1,2.22c-3,3.4-6.38,6.43-9.49,9.71-3.93,4.15-7.18,8.87-11.37,12.77-2.08,1.94-2.25,3.56-.88,6.22-2.86,2.62-5.78,5.16-8.55,7.87-2.46,2.41-4.75,5-7.11,7.53-1.24-2.17.13-3.49,1.68-4.52,1.9-1.24,3.65-2.32,2.68-5.11a2.38,2.38,0,0,1,1.1-2.4c2.75-1.88,3.45-5.2,5.52-7.57,3.42-3.9,6.54-8,10-11.93,4.25-4.79,8.92-9.13,13.38-13.68,4-4.11,8.11-8.15,13.08-11.34,2.94-1.9,5.27-5,8.19-7.17,4.38-3.19,8.34-7.11,13.67-8.84,1.54-.5,2.25-1.92,3.43-2.82,4.34-3.32,9.49-5.1,14.17-7.75,5.75-3.27,11.93-5.68,18-8.39,3.14-1.42,6.42-2.52,9.51-4.1,1.59-.82,3.64.44,5.29-.86a11.2,11.2,0,0,1,3.53-2.29c5.27-1.46,10.5-3.08,15.86-4.3,4.36-1,8.85-1.55,13-3.45a6.87,6.87,0,0,1,4.65-.14c2.42.59,4.75.76,6.76-1.15a1.71,1.71,0,0,1,1.11-.51c4.92.29,9.49-2.51,14.47-1.64h0c.92,1.17,2.2,1,3.45.91,9.65-.67,19.3-.1,28.94-.27,4.19-.08,8,1.94,12.06,1.21a.33.33,0,0,1,.24,0c3.87,2.38,8.1.81,12.16,1.14,1,.08,2.13-.14,2.06,1.45,0,.18.3.56.4.54,2.47-.51,4.53,1.74,7,1a3.7,3.7,0,0,1,3.36.29,5.09,5.09,0,0,0,3.32.82,3.45,3.45,0,0,1,2.17.38c2.85,2.23,6.4,2,9.62,3a10.19,10.19,0,0,1,4,1.91,4.71,4.71,0,0,0,3.93,1.22c3-.53,5.43,1.39,7.92,2.44,4.16,1.77,8.74,2.82,12.43,5.34,4,2.74,8.54,4.27,12.7,6.64,5.54,3.16,10.94,6.53,16.44,9.75a6.9,6.9,0,0,1,2.79,2.43,2,2,0,0,0,.87.86c6.86,2.49,12,7.37,17.14,12.27,4.58,4.39,10,7.69,14.6,12.1.29.28.73.46.94.8,2.63,4.19,6.81,7,9.83,10.84a16.5,16.5,0,0,1,2.28,3.25,12.83,12.83,0,0,0,4.27,4.85c2.75,2,3.73,5.21,5.9,7.61a69.34,69.34,0,0,1,8.54,11.31c1.55,2.69,3.19,5.33,4.68,8.05a4.55,4.55,0,0,0,2,2L934,267Z" transform="translate(-486.04 -134.35)"/><path class="cls-1" d="M688,611.91c1.53,1.61,3.42,1,5.15.68,2.22-.46,4.24-.48,6.11,1a2.54,2.54,0,0,0,1.83.62c4.16-1,8.25,1.46,12.42.12,1.3-.42,3-.72,3,1.61,0,.25.34.56.6.71,2.1,1.2,6.25-.1,7.37-2.29,1.72.3,3.43.73,5.17.86A4.41,4.41,0,0,1,734,619c.81,2.92.83,3.07-2.34,3a228.45,228.45,0,0,1-51.92-6.73c-40.83-10.14-76.6-29.62-107-58.71-40.5-38.8-64.4-86.17-72.09-141.72-.15-1.07-.14-2.15-.2-3.23a2.33,2.33,0,0,1-.19-1.67c.23-1.28,1-1.75,2-.8a12.92,12.92,0,0,0,1.7,1.35,11.45,11.45,0,0,1,2.06,5.8c.24,2.3.36,4.64,1.5,6.77.64,1.18.27,2.43,0,3.66s-.83,2.53-.18,3.82c.85.06.47-1,1.1-1.11a.69.69,0,0,1,.27.9c-.61,1.76-.75,3.4.77,4.83a2.12,2.12,0,0,1,.45,1.14c1.09,6.39,3.51,12.41,5,18.68.52,2.15.79,4.66,1.54,6.34a54.6,54.6,0,0,0,3.11,6.89,23.44,23.44,0,0,1,2.69,7.44c.78,3.45,4,5.39,4.89,8.81s3.19,6.44,4.07,10.07a13.08,13.08,0,0,0,4.91,7.58c1.46,1.05,1.21,2.86,2,4.22a41.3,41.3,0,0,0,4.25,6.12c3.58,4.25,6.34,9.07,9.37,13.71a14.22,14.22,0,0,0,3.86,3.87,3.47,3.47,0,0,1,1.25,1.18c2.39,5.21,7.1,8.41,10.63,12.62a79.18,79.18,0,0,0,5.79,6.16c3,2.9,6,6,9.24,8.67,4.1,3.42,8.21,6.92,12.49,10,5.33,3.84,10.14,8.44,16.34,11.27a30.31,30.31,0,0,1,7.88,5.3c2.52,2.35,6,3.49,9.23,4.76,2.85,1.12,5.84,1.88,8.23,4a11.8,11.8,0,0,0,4.14,2.27c6.14,2,12.06,4.62,18,7.1,4.18,1.73,8.75,2.49,13.17,3.61a13.4,13.4,0,0,1,3.56,1.1c2.22,1.27,4.44,2.21,7.1,1.52a2.75,2.75,0,0,1,2.69,1A3.4,3.4,0,0,0,688,611.91Z" transform="translate(-486.04 -134.35)"/><path class="cls-9" d="M856.92,375.44l9.53-9.49c1.14-.36,1.44.16,1.53,1.23a236.85,236.85,0,0,1,.6,26.11c-.26,9.35-2.47,18.24-4.7,27.21a98.57,98.57,0,0,1-6,17.16c-1.9,4.19-3.64,8.48-6.31,12.36-2.19,3.19-3.58,6.93-6,10-4.9,6.38-9.73,12.82-15.88,18.1-3.41,2.94-6.05,6.64-9.66,9.39a133.13,133.13,0,0,1-15.54,10.77c-4.8,2.68-9.74,5.07-14.57,7.69-2,1.11-2.36.91-2.51-1.31,0-.26.07-.51.1-.76.55-.82,0-1.82.45-2.64l1.48-10.49c6.45-3.76,12.47-8.19,18.8-12.13a28.29,28.29,0,0,0,6-5.25,36.64,36.64,0,0,1,5.68-5.49c3.38-2.39,5.62-5.6,8.16-8.6a63.65,63.65,0,0,0,7-10.24c1.42-2.57,3.11-5,4.61-7.6,2.87-4.94,6.08-9.7,7.1-15.48.47-2.66,2.33-4.73,2.92-7.39,1-4.61,2.49-9.12,3.6-13.71.94-3.88.54-7.94,1-11.9.2-1.9,0-3.83,0-5.74C854.28,383.14,853.83,378.89,856.92,375.44Z" transform="translate(-486.04 -134.35)"/><path class="cls-8" d="M873.06,359.51c1.63-1.66,3.29-3.3,4.88-5,1.25-1.33,1.84-1.34,2.24.65a136,136,0,0,1,2.74,19.78q3.8,67.41-43.65,115.49c-15.14,15.35-33.17,26.38-53.43,33.75-.75.28-1.66,1-2.32.44s-.06-1.56.11-2.33c.55-2.52,1.19-5,1.79-7.52.72-.3.52-.94.59-1.5.15-1.25.74-1.68,2-2.22,2.64-1.08,5.83-.7,8-3a1.71,1.71,0,0,1,.87-.46c5.06-1.07,8.58-5,13.05-7,3.71-1.69,6.41-4.68,9.92-6.61,2.31-1.27,3.71-3.88,6-5.47,6.56-4.56,11.39-10.85,16.47-16.89,5.93-7.05,10.76-14.88,15.62-22.63,2.37-3.78,3.71-8.28,4.88-12.69a3.9,3.9,0,0,1,1.24-2.34,5.33,5.33,0,0,0,2-3.9c.4-4.63,2.92-8.57,4-12.95s2.68-8.91,2.2-13.66a6.67,6.67,0,0,1,.66-4.13,3.07,3.07,0,0,0,.4-2.17c-1.13-5.37.16-10.75.06-16.13,0-2.15.47-4.36.43-6.61a26.42,26.42,0,0,0-2.39-11.11,1.48,1.48,0,0,1,.39-1.91A4.7,4.7,0,0,0,873.06,359.51Z" transform="translate(-486.04 -134.35)"/><path class="cls-11" d="M607.61,370.43c-3.74,2.35-4.57,4.56-3.23,9.46a16.15,16.15,0,0,1,0,8.11,20.5,20.5,0,0,0,.28,9.62,84.26,84.26,0,0,1,1.53,10.17,42.07,42.07,0,0,0,2.46,10.64c2.07,5.11,3,10.55,5.25,15.58s4.74,10.25,7.44,15.2a102.61,102.61,0,0,0,5.86,9.55c2.08,3,4.66,5.63,6.69,8.66,4,5.94,9.23,10.71,14.35,15.53,2.54,2.39,6,3.77,8.56,6.36,5,5.16,11.54,8,17.77,11.15,4.67,2.35,9.12,5.23,14.17,6.83a4.21,4.21,0,0,0,.93.35,9.47,9.47,0,0,1,4.86,1.17,64.81,64.81,0,0,1,3,8.45,1.47,1.47,0,0,1-2.21.34c-1.88-1.72-4.41-1.05-6.39-2-6.07-2.81-12.83-4.22-18.35-7.92-4-2.66-9.09-3.62-12-8.12-.8-1.25-3.13-1.59-4.71-2.52-4.35-2.6-7.72-6.27-11.34-9.68a12.32,12.32,0,0,0-2.67-2.22,11.77,11.77,0,0,1-5.2-5.22,7.37,7.37,0,0,0-1.92-2.28c-3.25-2.68-5.24-6.36-7.61-9.74a7.56,7.56,0,0,0-1.33-1.44c-1.91-1.62-3.18-3.77-4.76-5.6-2.84-3.29-3.57-7.62-6.35-10.81a18,18,0,0,1-3.95-8c-1.19-6.16-5.5-11-6.43-17.1-.36-2.43-1.11-4.83-1-7.34a1.67,1.67,0,0,0-.13-1c-3-4-3-8.72-3.38-13.42-.31-3.49-1.4-6.87-1.61-10.46a128.7,128.7,0,0,1,.77-25.13c.25-1.81.15-3.67,1.39-5.2A114.87,114.87,0,0,1,607.61,370.43Z" transform="translate(-486.04 -134.35)"/><path class="cls-11" d="M873.06,359.51c-.2,5.45,2.31,10.49,2.27,16,0,2.46-.7,4.71-.81,7.07-.16,3.57.17,7.16-.43,10.72a6.4,6.4,0,0,0,.46,2.68,4.75,4.75,0,0,1,.3,2.43c-1.83,5.69-1.07,11.8-2.9,17.47a83.22,83.22,0,0,1-3.58,9.77c-.74,1.59-.43,3.09-.66,4.61-.45,2.94-3.15,4.79-3.48,7.69-.39,3.34-3,5.66-3.74,8.91-.83,3.7-3.8,6.38-5.63,9.64-2,3.51-4.76,6.54-6.31,10.33a2.43,2.43,0,0,1-.67,1c-5.27,4-8.42,9.95-13,14.65-1.8,1.87-3.85,3.42-5.75,5.14A136.31,136.31,0,0,1,814,500c-2.23,1.49-4.86,2.55-7,4.22-3.87,3-8.95,3.79-12.67,7a1.63,1.63,0,0,1-1.62.44c-1.41-.55-2.37.17-3.37,1-.43.35-1.16.88-1.5.73-1.38-.59-1.4.26-1.56,1.17-.09.48-.25,1.46-.88.23a63.84,63.84,0,0,1,2-10.07c.69,1.06,1.42.45,2.14.05,6.14-3.34,12.51-6.32,18.35-10.12,6.58-4.28,13.09-8.74,18.27-14.89,2.71-3.22,6.2-5.78,9.1-8.89a26.61,26.61,0,0,0,5.12-6.7c1.05-2.27,3.21-3.72,4.62-5.79,1.56-2.27,3.27-4.43,4.15-7.05.61-1.82,2.23-2.92,3-4.58,3.49-8,7.47-15.68,9.85-24.15a241.59,241.59,0,0,0,5.29-24.86c.47-2.79.08-5.76.17-8.65.2-6.65.31-13.31-.9-19.91a20.17,20.17,0,0,1-.08-3.21Z" transform="translate(-486.04 -134.35)"/><path class="cls-12" d="M552.13,317.41l3.9,4.08c3.61,2.74,3,5.92,1.28,9.49s-2,7.87-3,11.81a135.78,135.78,0,0,0-4.2,31c-.08,3.85-1.15,7.73-.83,11.63,1.17,14.21,1.58,28.51,5.67,42.36,1.77,6,3,12.17,4.69,18.22.56,2,1.35,4,1.76,6.12a1.94,1.94,0,0,0,1.2,1.61c2.42,7.7,4.9,15.37,7.72,22.94a222.78,222.78,0,0,0,9.39,20.85c.36.74.65,1.52,1,2.28-.24.75-.06,1.78-1.2,1.93s-1.44-.62-1.73-1.45a6.82,6.82,0,0,0-1.88-2.6c-1.59-1.51-2.46-3.53-3.72-5.27-2.66-3.68-4.32-8-7.14-11.55a15.92,15.92,0,0,1-2.7-4.45c-1.75-4.87-4.87-9.15-6.5-14-2.35-7-6.14-13.49-7.62-20.81-.75-3.67-2.29-7.12-3.31-10.72a9.38,9.38,0,0,1-.48-3.93,4.78,4.78,0,0,0-.21-2.22c-2.78-8-3-16.37-3.71-24.74-.61-6.84.19-13.81-1.6-20.57a9.16,9.16,0,0,1,.59-5.14c1.7-5.39,1.55-11,1.74-16.55a53.1,53.1,0,0,1,2.63-13.36,11.82,11.82,0,0,0,.8-3.13c0-4.59,1.82-8.75,3.21-13,1.1-3.32,1.63-6.8,3.11-10C551.26,317.68,551.34,317.17,552.13,317.41Z" transform="translate(-486.04 -134.35)"/><path class="cls-6" d="M623.51,557.44c-.4-.05-1,.07-1.17-.16-2.3-2.31-5.27-3.74-7.72-5.76-2.89-2.39-6.43-3.72-9.09-6.48-4.94-5.11-10.76-9.33-15.75-14.36a67.47,67.47,0,0,1-8.39-9.44,23.42,23.42,0,0,0-5.61-6,9.05,9.05,0,0,1-4-5.51c-.37-1.81-2.08-3-3.23-4.36-2.83-3.39-4.93-7.23-7.41-10.82A157.71,157.71,0,0,1,547.59,469c-1.31-3.55-3.28-7-4.83-10.57-1.17-2.68-2.49-5.3-2.78-8.34s-1.76-5.56-2.89-8.18c-1.54-3.58-2-7.38-2.79-11a57.47,57.47,0,0,1-1.51-12.56,22.39,22.39,0,0,0-2.32-9.61c-1.35-2.9-.34-5.57-.51-8.33-.1-1.75.13-3.46-1.36-4.84-.7-.64-.56-1.71-.56-2.62,0-5.91,0-11.83,0-17.74a5.21,5.21,0,0,1,1.1-3.46c1.61-2,1-4.5.72-6.75A11.42,11.42,0,0,1,531,358.8,18.76,18.76,0,0,0,532.41,348a9.73,9.73,0,0,1,.39-4.49c1-3.75,3-7.2,2.84-11.36a16.3,16.3,0,0,1,1.6-7.21c2.55-5.66,4.16-11.62,6.3-17.41a8.46,8.46,0,0,1,2.07,2.46c3.17,2.9,2.19,6,.42,9.13a18.56,18.56,0,0,0-2.36,7.06,17.14,17.14,0,0,1-1.65,5.2c-1.8,3.87-2.11,8.17-3,12.28a72.21,72.21,0,0,1-2,8.73c-.79,2.22-.06,4.45-.48,6.68-1.64,8.62-1.65,17.4-1.58,26.1a183.42,183.42,0,0,0,1.59,25.62c.82,5.52,2.39,10.88,3.22,16.33,1,6.71,4,12.8,5,19.46a14.14,14.14,0,0,0,1.19,3.55c2.1,5,3.93,10.05,6.14,15a234.18,234.18,0,0,0,13.89,26.49c4.7,7.67,10.36,14.64,15.9,21.69,2.89,3.68,5.62,7.81,9.48,10.43s6.14,6.22,9.59,8.94c1.65,1.29,2.91,3.26,4.28,5,.36.45.56,1,1.29,1,3.79,4.25,7.56,8.5,11.37,12.74C619.71,553.35,621.62,555.38,623.51,557.44Z" transform="translate(-486.04 -134.35)"/><path class="cls-12" d="M771.47,574.33c-.08-1.73.8-3.24,1.1-4.89,2.49-3.78,6.47-4.36,10.48-4.75a24,24,0,0,0,4.76-1.42A207.19,207.19,0,0,0,808.42,556c3.72-1.58,7.86-2.66,11.1-5.38a3.54,3.54,0,0,1,1.55-.77c4.61-.88,7.82-4.23,11.66-6.48,4.94-2.88,9.37-6.56,14.51-9.11a22.3,22.3,0,0,0,3.52-2.78c4.68-3.7,9-7.79,13.34-11.91a142.89,142.89,0,0,0,10.36-10.66c2.29-2.71,5.27-4.8,7.52-7.52,1.49-1.8,3.6-3.13,4.46-5.45a246.8,246.8,0,0,0,29.9-39,3.27,3.27,0,0,1,.53-.52c1.82-.36,1.72.63,1.36,1.88-.62,2.13-2.36,3.64-3.15,5.64-2,5-5.21,9.42-7.19,14.45a39.22,39.22,0,0,1-2.15,3.65,145,145,0,0,1-12.16,19c-3.37,4.49-6.39,9.31-10.74,13a25.19,25.19,0,0,0-3.05,3.62c-4.17,5.13-9.2,9.4-14,13.84A131.77,131.77,0,0,1,852.86,542a235.36,235.36,0,0,1-22,14.15c-6.09,3.37-12.61,5.95-18.88,9-9.66,4.68-20,7.14-30.21,10.08-2.15.62-4.35.93-6.48,1.75C772.54,578,771.25,576.94,771.47,574.33Z" transform="translate(-486.04 -134.35)"/><path class="cls-13" d="M684.51,294a124.49,124.49,0,0,1-13-2.54.91.91,0,0,1,.4-1.45c4.31-1.8,7.79-5,12-7,1.54-.76,2.86-1.71,4.8-1.55,1.41.12,2.85-.86,3.91-1.85a8.42,8.42,0,0,1,4-2c4-.95,7.9-2.49,12-3.15a63.21,63.21,0,0,0,7.41-2,23,23,0,0,1,5.71-1c7.79-.17,15.51-1.2,23.4,0,5.43.8,10.9,1.55,16.34,2.23,4.43.55,8,2.81,12.08,3.91,6,1.61,11.42,4.38,16.85,7.39,3.47,1.92,6.62,4.3,10.12,6.14.45.24,1.32.44.9,1.36-3,1.07-5.84,2.49-9,3-1.83-.4-3.24.93-4.91,1.24-.85.16-1.72.53-2.31-.18-1.82-2.17-4.29-2.8-6.86-3.66a71.71,71.71,0,0,1-9.29-4.23,5.09,5.09,0,0,0-1.31-.71c-4.75-.79-9.16-3.21-14.08-3.13-2.37.05-4.56-.87-6.79-1.12a89,89,0,0,0-14.16-.76c-5.73.27-11.29,1.94-17.06,1.75a1.54,1.54,0,0,0-1,.14c-2.78,2.24-6.3,1.7-9.44,2.58-4,1.1-7.56,3.09-11.17,4.89C691,293.83,687.8,293.91,684.51,294Z" transform="translate(-486.04 -134.35)"/><path class="cls-14" d="M722,194.54c3.25-1.41,6.58-.3,9.85-.19a69.51,69.51,0,0,0,7.14.36c2.74-.16,5.69.61,8.58.66,7.67.12,15.12,1.94,22.69,2.81,3.61.42,7.07,2,10.67,2.52,6.89,1.06,13.15,4,19.72,6.06,13.06,4,24.81,10.84,36.42,17.74,7.88,4.69,15.11,10.47,22.23,16.38,11,9.08,19.6,20.28,29.2,30.61a48.19,48.19,0,0,1-8,1.56c-2.33-.12-3.9-1.39-5.46-3-6.09-6.43-11.3-13.62-18.43-19.15-4.82-3.74-9.15-8.18-14.09-11.82s-9.86-7.28-15.64-9.65c-2.06-.85-3.92-2.42-5.9-3.62-3.4-2.07-7.09-3.52-10.55-5.48A76.26,76.26,0,0,0,800.4,216c-.81-.31-1.39-1.33-2.46-.82a180.18,180.18,0,0,0-44.52-15.8c-3.63-.79-7.28-1.55-10.91-2.32-.8-.58-1.82,0-2.63-.46a12.14,12.14,0,0,1-4.4-.59c-.84-.46-1.82,0-2.66-.4l-.83-.07c-1.16-.58-2.48.1-3.65-.43l-1.87-.11c-1.17-.49-2.47.11-3.64-.39Z" transform="translate(-486.04 -134.35)"/><path class="cls-5" d="M941,403.49c1.3-5,2.53-10.08,3.93-15.08.89-3.16.77-6.57,2.49-9.51,1.26,0,1.14,1,1.24,1.77a46.71,46.71,0,0,1,.06,12.66c-.61,3.92-.8,7.94-1.59,11.88a84.32,84.32,0,0,0-1.46,10.32,47.65,47.65,0,0,1-1.09,5.86c-.8,4-.57,8.16-2.35,11.93-.83,1.76-.77,3.73-1.17,5.59-1.41,6.53-4.32,12.56-6.1,19A55.94,55.94,0,0,1,929.65,471c-1.16,2-1.87,4.26-2.94,6.33-3.53,6.85-7.7,13.33-11.54,20-4,6.87-9.36,12.68-13.19,19.58a8.82,8.82,0,0,1-2.35,2.56,27,27,0,0,0-4.81,5c-6.18,8.25-14,14.82-21.58,21.73-4.14,3.79-8.92,6.58-13.15,10.2s-9.45,6.37-14.33,9.34a213.65,213.65,0,0,1-23.09,12.3c-6.35,2.86-12.94,5.21-19.49,7.62-6.79,2.5-14,3.43-20.76,6.12a6.37,6.37,0,0,1-3,.32c-3.29-.29-6.36,1.18-9.63,1.14-1.29,0-2.14,1.19-3.21,1.83-1.4.84-2.06.43-1.64-1.25.36-1.15.72-2.29,1.09-3.43.21-.13.53-.26.57-.47.68-3.66,3.87-3.77,6.32-3.66,4.87.23,9-1.87,13.44-3.09,2.15-.59,4.33-1.13,6.49-1.58,4.3-.9,8.23-2.82,12.47-3.91,5.07-1.31,10.24-2.89,14.42-6.42a1.15,1.15,0,0,1,.65-.36c4.53,0,7.58-3.63,11.66-4.7a3.91,3.91,0,0,0,1.53-.85c4.32-3.67,9.86-5.3,14.37-8.69,1.85-1.4,3.53-3.15,5.61-4.12,3.67-1.72,6.25-4.86,9.61-6.92a50.77,50.77,0,0,0,9.25-7.52c3.08-3.12,6.72-5.56,9.66-8.9,2.25-2.57,4.78-5.09,7-7.68,3.3-3.81,6.78-7.55,9.54-11.83a4.09,4.09,0,0,1,.69-1,23.52,23.52,0,0,0,6.07-8.42c1.63-3.64,4.79-6.16,6.45-9.73,2.3-5,5.19-9.62,7.59-14.56,3-6.11,6.26-12.1,8.7-18.43a126.67,126.67,0,0,0,5.17-15.6c.39-1.61,1.28-3,1.57-4.72a8.51,8.51,0,0,0,.17-3.65,3.45,3.45,0,0,1,.19-2A140.64,140.64,0,0,0,939.83,413c.42-2.21.26-4.6,1.68-6.62C942.16,405.5,940.82,404.54,941,403.49Z" transform="translate(-486.04 -134.35)"/><path class="cls-5" d="M765,593.87c.23.28.6.51.85.26,3.62-3.66,8.4-2.77,12.79-3.16,3.71-.32,7.12-1.57,10.57-2.71a37.25,37.25,0,0,1,5.51-1.46c5.69-1,11-3.34,16.31-5.43a188.93,188.93,0,0,0,20-8.83c6.38-3.39,12.51-7.19,18.81-10.69a52.33,52.33,0,0,0,9.12-6.31c4.11-3.63,8.9-6.24,13-10,5.34-4.86,10.72-9.68,15.88-14.75a28.14,28.14,0,0,0,5.3-6.27c2.16-3.95,6.42-6,8.79-9.78,1.85-3,3.93-5.77,5.74-8.75a10.75,10.75,0,0,1,2.3-2.89,6.76,6.76,0,0,0,2.52-3.91c.48-2.38,2.34-4,3.61-5.91,2.44-3.65,4.15-7.7,6.64-11.29a35.55,35.55,0,0,0,3.46-6.89c1.62-3.9,3.79-7.52,5.24-11.53,3-8.43,6.24-16.84,8.28-25.54.95-4.05,2.38-8,2.83-12.27A98.52,98.52,0,0,1,945,411a60.27,60.27,0,0,0,1.4-10.33c.2-2.31-.08-4.65,1.12-6.82.74-1.35-.16-2.78-.3-4.15-.38-3.61.21-7.18.2-10.77q.3-2.7.61-5.4a2.77,2.77,0,0,0,.66-2.17,2,2,0,0,1,.16-1,.48.48,0,0,1,.6.15c1.8,2.37,1.32,5.24,1.26,7.81-.22,9-.73,17.95-1.3,26.91-.45,7-1.92,13.81-3.14,20.69-1.42,8.06-4.15,15.75-6,23.68a42.28,42.28,0,0,1-1.92,5.14c-2,5.27-3.59,10.72-6,15.78-4.18,8.74-8,17.67-13.63,25.69-2.41,3.46-4.56,7.12-6.74,10.74-2.76,4.58-6.58,8.53-10,12.71-2.88,3.53-5.68,7.15-8.78,10.49-3.39,3.64-7,7-10.63,10.47-9.29,8.87-19.56,16.46-30.15,23.71-12.17,8.34-25.43,14.47-39,19.94-8.07,3.24-16.29,6.37-24.85,8-6.27,1.21-12.24,3.7-18.66,4.24a13,13,0,0,0-3.56,1.1c-1.1.43-1.94.35-2.47-.82Z" transform="translate(-486.04 -134.35)"/><path class="cls-15" d="M689.06,493.33c-.91,1.31-1.9.74-2.76,0a6.63,6.63,0,0,0-3.89-1.45c-2.55-.22-4.28-2.26-6.39-3.41a87.68,87.68,0,0,1-13.27-8.79c-6-4.9-12.42-9.41-17.14-15.74-3.59-4.83-7.38-9.52-11-14.33a18,18,0,0,1-1.6-3.09c-2.8-5.8-6.33-11.24-8.69-17.27-1.87-4.78-3.8-9.55-4.3-14.73-.24-2.42-1.86-4.26-2.33-6.7-1.36-7-1.44-14.15-2-21.23a23.91,23.91,0,0,1,1.26-8.6,44,44,0,0,1,7.5,5.51c1.86,3.05.7,6.38.84,9.58.12,2.74-.15,5.51,1.22,8a1.76,1.76,0,0,1,.23,1c-.56,4.16,1.69,7.92,1.7,12,0,1.67,1.34,2.83,1.85,4.32,2.7,7.87,6.61,15.19,10.24,22.65,2.23,4.58,5.86,8,8.5,12.18,4.56,7.21,11.42,12.28,17.81,17.65a112.63,112.63,0,0,0,15.66,10.64c1,.6,1.81,1.64,3.07,1.86A89,89,0,0,1,689.06,493.33Z" transform="translate(-486.04 -134.35)"/><path class="cls-16" d="M685.52,483.43c-.28,1.27-1,.47-1.5.27-4.62-1.76-8.4-4.89-12.46-7.59-5.4-3.59-10.12-8-15-12.23A59.09,59.09,0,0,1,646.39,452a48.86,48.86,0,0,0-3-3.92c-4.18-5-6.29-11.16-9.19-16.88-.34-.66-.7-1.32-1.09-2-2.72-4.38-3.51-9.54-5.78-14.15-1-2-1.17-4.65-1.42-6.94-.7-6.56-2.73-13-1.81-19.71.23-1.64.24-3.3.35-5,3,2,6.09,3.82,8.58,6.47,2.12,4.33,2.5,9,2.71,13.73a1.35,1.35,0,0,0,.14.73c3,4,2.08,9.57,5,13.66.63.87.45,2.1.82,3.13,3.39,9.32,7.58,18.18,14.52,25.49a26.4,26.4,0,0,1,2.84,4.09,9.33,9.33,0,0,0,4.31,4,2.39,2.39,0,0,1,1.49,1.26c1,2.72,3.19,4.18,5.45,5.61,3.33,2.1,6,5,9.23,7.26a2.82,2.82,0,0,0,1,.46C682.69,473.9,683.56,478.86,685.52,483.43Z" transform="translate(-486.04 -134.35)"/><path class="cls-15" d="M856.92,375.44c-2.27,9.2-.59,18.72-2.12,27.91-1.17,7.06-2.81,14.15-6,20.69-.72,1.46-.79,3-1.25,4.55-1.57,5.1-4.49,9.49-7,14.14-1.76,3.26-3.86,6.32-5.68,9.52a56.06,56.06,0,0,1-7.55,10.13,90.19,90.19,0,0,1-6.35,6.48c-3,2.7-6,5.56-9,8.36-4.14,3.89-9.22,6.44-13.88,9.58-2.33,1.57-4.47,3.47-7.2,4.42-1.06.37-.35,1.51-.9,2.4-.73-.93-.37-1.94-.55-2.81a73.66,73.66,0,0,1,1-10.06c4.79-2.39,9.77-4.52,12.83-9.3.33-.5,1-.63,1.49-.88a8.92,8.92,0,0,0,3.08-2.08c4.17-5,9.38-8.89,13.68-13.75,8.29-9.34,13.33-20.45,18.38-31.66,2.59-5.73,2.51-12,4.84-17.69,2.2-5.32,1.16-10.83,1.73-16.23.13-1.16.16-2.12,1.15-3a2.6,2.6,0,0,0,.81-2.24Z" transform="translate(-486.04 -134.35)"/><path class="cls-16" d="M848.39,383.92c1.08,2.44-1.22,4.55-.67,7,.16.69-.27,1.5-.18,2.22.88,6.74-1.81,12.86-3.24,19.2-.42,1.86-.57,3.78-1,5.64-1,4-3.29,7.41-4.69,11.21a79.33,79.33,0,0,1-7,14A85.75,85.75,0,0,1,821.28,457c-3.95,4.23-8.23,8.13-12.44,12-3.6,3.34-7.15,6.9-11.32,9.6a33.77,33.77,0,0,1-5.51,2.76c-.7.28-.84.88-1.41,1.41-.07-.79-.13-1.44-.2-2.09a67.81,67.81,0,0,1,1-9.95,22.46,22.46,0,0,1,6.34-5.71,10.44,10.44,0,0,0,1.66-1.11c6.09-4.93,11.8-10.31,16.18-16.8,6.22-9.24,12.46-18.56,16.3-29.11a73.43,73.43,0,0,0,3.88-15.41,30.79,30.79,0,0,1,2.55-8.77Z" transform="translate(-486.04 -134.35)"/><path class="cls-17" d="M941,403.49a3.38,3.38,0,0,1,1,3.82,28.64,28.64,0,0,0-.91,5.9,14.48,14.48,0,0,1-1.39,5.77,2.36,2.36,0,0,0-.37,1.18c.47,4.35-1.82,8.07-2.75,12.09,0,.16-.17.34-.13.47,1.66,5.21-2.07,9.21-3.11,13.82-1.38,6.07-4,11.76-6.25,17.53-.75,1.9-2.2,3.49-2.93,5.46-2.62,7.08-7.07,13.24-10.19,20.08-2,4.47-6.07,7.73-7.91,12.24-2.12,5.21-6.31,8.86-9.61,13a191.44,191.44,0,0,1-13,14.92c-4.8,4.94-10.42,8.91-15.11,13.91-1.26,1.35-3,2.09-4.5,3-2.64,1.7-4.63,4.13-7.44,5.67-4,2.22-7.63,5.25-11.5,7.79-2.14,1.39-4.27,2.94-6.75,3.65-1.44.41-1.94,1.9-3.16,2.32-4.6,1.58-8.26,5.3-13.31,5.85a3.66,3.66,0,0,0-1.55.75c-5.29,3.75-11.37,5.58-17.57,7.06a8,8,0,0,0-3.26,1.09,11.2,11.2,0,0,1-4.17,1.52c-3.14.84-6.16,2.57-9.3,2.76-3.83.22-6.9,3.37-11,2.28-1.85-.49-3.8.27-5.7.4s-1.52,2.42-3.14,2.52l1-3c.95-.42.8-1.55,1.41-2.2.93-.24,1.18-1.23,1.9-1.69.23-.15.46-.28.69-.4,3.51.62,6.83-.74,10.22-1.15,4.33-.52,8.4-2.35,12.43-4,.53-.23,1.07-.66,1.6-.58,3.27.46,5.35-2.13,8.06-3.07a1.14,1.14,0,0,1,.7-.36c3.33-.76,6-3.41,9.47-3.58s6-2.44,9.17-3.13c.67-.15,1.07-.74,1.54-1.21a7.32,7.32,0,0,1,4.36-2.24,9,9,0,0,0,5.5-3,9.66,9.66,0,0,1,3.57-2.11c3.82-1.48,8-2.41,10.59-6,.36-.49.73-1,1.3-1.08,3.12-.23,5-2.53,7.08-4.33a24.29,24.29,0,0,1,4.59-3.36,7.34,7.34,0,0,0,4-4.48,3.52,3.52,0,0,1,2.86-2.53c3.18-.54,4.66-2.86,6.13-5.27.13-.2.14-.53.35-.63,2.2-1,3.34-3.21,5.23-4.61,2.65-2,5.39-4.15,7-6.9,3.22-5.47,7.4-10.17,11.37-15,2.88-3.49,4.56-7.83,8.09-10.8.87-.73.32-2,.95-3,1.66-2.63,3.66-5,5.33-7.62,1.07-1.66,2.42-3.22,2.27-5.41a1.35,1.35,0,0,1,.21-1c2.71-2.74,2.45-7,5.34-9.8,1.89-1.81,3.18-4.33,2.17-7.26a15,15,0,0,1,.63-1.42c1.46-3,3.28-5.78,3.68-9.28.27-2.32,2.55-4,3-6.42.64-3.6,2.41-6.86,3.17-10.43a9.14,9.14,0,0,0,0-5.08,1.28,1.28,0,0,0,.24-.7c.41-.49.23-1.21.58-1.74a4,4,0,0,1,.29-.63c.89-1.52,1.14-3.36,2.39-4.72.39-.42-.05-.92-.08-1.38s0-.9-.08-1.35c.21-.32.43-.64.64-1a1.52,1.52,0,0,0,.31-1.55,8,8,0,0,1,1.07-3,1.6,1.6,0,0,0,.5-1.47c.2-.66.39-1.33.59-2a2.27,2.27,0,0,0,.83-2.57Z" transform="translate(-486.04 -134.35)"/><path class="cls-18" d="M934.48,426v.5a11.49,11.49,0,0,1-.48,3.89c-2.26,7-3.71,14.24-6.67,21-1.07,2.45-1.37,5.23-2.84,7.56l-.5,1a28.8,28.8,0,0,1-2.38,6.69Q918.13,473.21,915,480c-1.55,3.33-4.25,6-5.57,9.39-1.12,2.9-4.07,4.72-4.44,8-.08.69-.74,1.09-1.2,1.56-1.5,1.53-3.23,2.89-3.54,5.24-.08.59-.63,1-1.06,1.36-2.32,2.16-3.9,4.89-5.7,7.45-1.54,2.18-3.67,3.84-5.46,5.81-3.77,4.17-7.34,8.56-11.5,12.34-4.78,4.34-9.6,8.68-14.61,12.71-4,3.2-7.81,6.71-12.32,9.13-3.69,2-6.94,4.67-10.71,6.48-5.78,2.79-11.09,6.54-17.06,8.87-3.5,1.37-6.7,3.44-10.58,4.16-2.21.41-4.42,2.08-6.73,3-1.31,0-2.33.84-3.46,1.3-5.44,2.26-11.37,2.89-16.79,5.24-2.5,1.09-5.41.52-8.08,1.3-1.74.52-3.47,1-5.17,1.66h-.5c-.64-.17-1.54.05-1.59-1a2.67,2.67,0,0,0,0-.4c.25-.84.9-1.59.59-2.56l.48-1.54c4.14-.86,8.2-2.07,12.37-2.8a91.1,91.1,0,0,0,10.29-2.85,94.61,94.61,0,0,0,13.56-4.87c2.92-1.38,6-2.37,9-3.57a97.69,97.69,0,0,0,17.82-8.79c2.91-1.91,6-3.52,9-5.36a197.3,197.3,0,0,0,18.6-13.39c9.45-7.46,17.25-16.61,25.86-24.94a49.8,49.8,0,0,0,5.49-7.1c4.79-6.67,9.91-13.13,14-20.29,1.74-3,2.66-6.44,4.53-9.43,3.62-5.79,5.79-12.31,8.93-18.35a16.55,16.55,0,0,0,1.73-5.19,21,21,0,0,1,2.85-7.54,3.42,3.42,0,0,0,.37-2c3.69-7,6.8-14.27,10.06-21.47,1.14-.37,1,.37.85,1s-1,1.18-.34,2C935.29,425.12,934.88,425.54,934.48,426Z" transform="translate(-486.04 -134.35)"/><path class="cls-19" d="M924.41,442.92c.58.67,1,1.46.34,2.23a7.85,7.85,0,0,0-1.62,4.64c-.91,7.48-5.09,13.68-8.08,20.31-3.9,8.69-8,17.43-13.68,25.08-5.32,7.18-10,14.93-16.54,21.2-4.56,4.39-9,8.94-13.45,13.42-10.91,10.88-23.39,19.6-36.69,27.33-5.47,3.18-11,6.08-16.77,8.69-2.87,1.31-6,2.12-8.83,3.44-4,1.84-8.34,2.77-12.32,4.63-2.92,1.36-6.22,1.28-9.14,2.4-4.78,1.83-9.81,2.45-14.71,3.66-1,.25-2.16.64-2.94-.57.5-1.68,1-3.37,1.49-5,.63,1.83,2.06,1.8,3.47,1.28,4.44-1.65,9.17-2.2,13.65-3.72s9.38-2.69,14-4.37c6.35-2.3,12.45-5.16,18.48-8,6.69-3.18,13.7-6,19.4-11.06a20.42,20.42,0,0,1,3.41-2c6.32-3.69,11.88-8.36,17.55-12.94,4-3.25,7.36-7.21,11.52-10.28a23.82,23.82,0,0,0,4.3-4.83c2.88-3.67,6.67-6.51,9.35-10.3,4.16-5.9,8.84-11.41,12.64-17.59,1.61-2.63,2.73-5.42,4.16-8.09.78-1.47,2.31-2.27,3-3.88a172.46,172.46,0,0,1,9.91-19.56c.45-.78,1.08-1.54.56-2.54,2.06-3.71,4.11-7.42,6.18-11.13C923.48,444.45,924,443.69,924.41,442.92Z" transform="translate(-486.04 -134.35)"/><path class="cls-6" d="M606.48,538.53c-1,.17-1.36-.77-2-1.25-1.88-1.4-3.1-3.5-5.42-4.5a6.57,6.57,0,0,1-3.22-3c-1.44-2.68-4.17-4.18-6.33-6.21-4.8-4.49-8.76-9.73-12.84-14.87-2.52-3.18-5.09-6.33-7.32-9.71-3.57-5.39-7.13-10.77-10.16-16.51-3-5.58-5.81-11.2-8.35-17-2.21-5-4.34-10.07-6.21-15.21-1.38-3.81-2.1-7.87-3.45-11.69-2.71-7.62-3.72-15.63-5.62-23.43-1.05-4.33-1.15-9-1.41-13.58-.31-5.31-.61-10.65-.55-16,.1-9.06.52-18.1,1.43-27.14.69-6.89,3-13.41,3.73-20.19.56-5.33,3.44-9.81,4.22-15.05a22.83,22.83,0,0,1,3.89-9.58c.42-.59,0-1.1-.31-1.61-.4-.69-1.27-1.17-1-2.17L550,315c.12,1.1,1.09,1.91,1,3.07-4,6.56-5.53,14-7.42,21.28-2.61,10.13-3.57,20.46-4.68,30.78-1.16,10.88-.6,21.75.46,32.63a207.87,207.87,0,0,0,4,25.09c1.41,6.32,3.24,12.54,5.28,18.71,1.66,5,3.35,9.91,5.48,14.71,3.31,7.44,6.44,15,10.79,21.9,4.1,6.53,8.34,13,12.81,19.28a62.88,62.88,0,0,0,5.47,6.48c3.27,3.49,5.67,7.69,9.13,11,.91.88.61,2.7,2.32,2.92Z" transform="translate(-486.04 -134.35)"/><path class="cls-19" d="M594.62,522.88c-1.24,1-2.33,1.53-2.1-.91a2.49,2.49,0,0,0-1-2.15,104.56,104.56,0,0,1-17-20.05c-1.71-2.64-3.95-4.87-5.65-7.56a217.32,217.32,0,0,1-16.56-31.73,202.6,202.6,0,0,1-10.83-34.66c-2.21-10-3.19-20.15-4-30.34-1-12-.16-24,1.19-35.84A155.75,155.75,0,0,1,546.89,323c.76-2.08,1.53-4.27,3.64-5.52-.24-.61,0-1,.58-1.16l1,1.08c-.34,3.17-1.5,6.13-2.35,9.16-1.47,5.25-3.2,10.39-4.1,15.85a53,53,0,0,1-2.6,10.54,8.82,8.82,0,0,0-.52,2.93c-.21,7.14-.07,14.31-2.36,21.23a3,3,0,0,0,0,1.72c1.42,4.4.25,9,1,13.38,1.14,7,.14,14.2,1.65,21.09.76,3.5.82,7.26,2.64,10.55,1.22,2.2,0,4.7.85,7.09,3.15,8.75,5.49,17.73,9,26.4,2.73,6.71,6.43,12.95,8.84,19.77a6.39,6.39,0,0,0,1.29,2.12c1.89,2.05,3,4.61,4.55,6.79,2,2.93,3.36,6.2,5.38,9.07,1.28,1.82,4,2.46,4.25,5.16l1.12-.42C585.22,507.59,589.72,515.36,594.62,522.88Z" transform="translate(-486.04 -134.35)"/><path class="cls-11" d="M638.53,285a51.16,51.16,0,0,1,13.24-11.23c1.35-.75,2.06-2.21,3.35-3.2,4.87-3.77,10.32-6.67,15.56-9.66,4-2.3,8.19-5.35,13.38-5.54,1.64-.06,2.76-1.9,4.41-2.51,1-.39,1.95-.9,3.08-.53a1.71,1.71,0,0,0,1.45,0c6-3.56,12.65-4.72,19.36-5.55,4.93-.61,9.77-1.76,14.8-2,3.47-.16,6.7,1.28,10.12.73,9.43-1.5,18.54,1.72,27.85,2a7.48,7.48,0,0,1,3.77,1.21,8.75,8.75,0,0,0,3.71,1.18c1.94.25,4,.61,5.46,2.17a1.83,1.83,0,0,0,1.06.59c5.94.33,10.91,3.18,16,5.91,3.72,2,7.59,3.73,11.39,5.59A6,6,0,0,1,808,265c3.19,3,7.12,4.91,10.86,7.1a9.92,9.92,0,0,1,1.5,1.26c3.79,3.49,7,7.58,11.65,10.11a16.88,16.88,0,0,1-4.48,1c-1.56,0-2.69-.75-4-1.63-4.15-2.91-7.78-6.52-12.18-9.09-2.09-1.23-3.64-3.16-5.79-4.33-4.24-2.28-8.64-4.26-12.92-6.46-2.72-1.4-5.07-3.63-8.3-3.89a17.44,17.44,0,0,1-7.69-2.7,7.44,7.44,0,0,0-2.55-1c-7.35-1.27-14.5-3.56-21.94-4.39a39.62,39.62,0,0,0-4.48-.28c-7.16,0-14.33,0-21.49,0a65.77,65.77,0,0,0-22.5,3.69,2.08,2.08,0,0,1-.48.16c-7.37.84-14.15,3.62-20.74,6.74-7.42,3.5-15.17,6.47-21.76,11.54-4.86,3.75-10,7.18-14.48,11.38a10,10,0,0,1-2.74,1.69C641.85,285.68,640.1,285.78,638.53,285Z" transform="translate(-486.04 -134.35)"/><path class="cls-14" d="M886.44,495.92c-.67,3.35-3.18,5.46-5.37,7.75-3,3.1-6.41,5.74-8.57,9.55a3.82,3.82,0,0,1-.78,1c-6.54,6-12.78,12.24-19.61,17.88-4.85,4-10.32,7.08-15.63,10.4-2.12,1.32-4.17,2.74-6.22,4.16-2.72,1.9-5.3,4-8.77,4.49a6.55,6.55,0,0,0-2.31,1.42c-.55.37-1,1.06-1.57,1.2-5.54,1.24-10.2,4.66-15.66,6.18a148.14,148.14,0,0,0-15.27,5.29c-1.95.78-3.9.77-5.84,1.06-3,.45-5.51,2.13-8.27,3.18l2.32-9.13a4.12,4.12,0,0,1,3.57-2.16,16.54,16.54,0,0,0,5.73-1.65c5.8-2.54,12-3.72,17.89-6.16,4.18-1.74,8.31-3.63,12.48-5.38,3.13-1.31,6.63-2.59,8.86-5.58a179,179,0,0,0,26.91-13.67,188.29,188.29,0,0,0,33.74-27.6C884.82,497.34,885.65,496.65,886.44,495.92Z" transform="translate(-486.04 -134.35)"/><path class="cls-20" d="M779.49,300q-11.7,3.9-23.41,7.78a4,4,0,0,1-2,.12q-26.29-5.21-52.58-10.46c-.46-2.33,1.49-3.08,2.9-3.62,3.09-1.18,6.19-2.51,9.52-2.94,5.51-.7,11-1.8,16.52-2.25a67.88,67.88,0,0,1,17.62,1c3.93.7,7.91,1,11.81,2,3.42.8,6.79,1.55,9.86,3.37,2.59,1.53,5.55,2.23,8.36,3.27C779,298.5,780.1,298.56,779.49,300Z" transform="translate(-486.04 -134.35)"/><path class="cls-21" d="M779.49,300a57,57,0,0,1-12-4.7c-3.68-2.1-7.9-2.62-12-3.14-6.33-.82-12.57-2.4-19-2.36a78,78,0,0,0-16.77,1.68c-1.23.28-2.45.41-3.68.58-5.22.68-10.31,1.78-14.46,5.38-5.7-1-11.41-2-17-3.41,7.07-1.41,13.1-5.52,19.87-7.71a13,13,0,0,1,5.61-1,1.62,1.62,0,0,0,1-.12c5.43-3.33,11.71-1.9,17.54-3.1,5.33-1.09,10.77-.35,16.17-.08a11.24,11.24,0,0,1,4.83,1c1.85,1,3.92.55,5.9.38a6.48,6.48,0,0,1,3,.1c6.67,2.51,13.43,4.72,19.94,7.75,2.83,1.32,5.86,2,8,4.49a1.45,1.45,0,0,0,2.06,0c1.34-2.25,2.7-.85,4.09-.22A92.9,92.9,0,0,1,779.49,300Z" transform="translate(-486.04 -134.35)"/><path class="cls-15" d="M659.42,289.16c4.67-.49,8.2-3.66,11.9-5.88s7.39-4.64,11.24-6.77c3.31-1.83,6.88-2.91,10.29-4.41,5.09-2.22,10.53-3.29,15.76-5a41.74,41.74,0,0,1,10.77-1.94c8.31-.47,16.58-1.57,25-.43,5.33.72,10.84.47,16.08,1.79s10.5,2.94,15.67,4.7c4.11,1.4,8,3.24,11.88,5,6.63,3,13.39,5.95,18.59,11.33,1.42,1.46,3.4.55,4.9,1.44l-2,.6a1.48,1.48,0,0,0-1.47.47l-1.52.55c-.55-.06-1.13-.22-1.43.48l-1.11.42c-2.1.68-3.7-.29-5.25-1.54-3-2.44-6.72-3.91-10-6-4.33-2.85-9.16-4.71-13.82-6.72-3.27-1.4-6.92-3-10.49-3.13-3.91-.14-7.3-2.42-11.22-2-.55.06-1.24-.53-1.77-1s-1.58-1-2.3-.55c-2.5,1.64-5.06.77-7.59.33a80.4,80.4,0,0,0-10.51-.67,4.12,4.12,0,0,0-2.2.36c-2,1.07-3.86,1.35-5.85,0a2,2,0,0,0-2.14.22,18,18,0,0,1-9.64,2.16A2.31,2.31,0,0,0,710,273c-4.57,2.65-9.91,3-14.75,4.82-1.59.61-2.53,2.07-4.1,2.65-1.23.46-2.21,1.4-3.82,1-.88-.25-2.07.57-3,1.13-1.85,1.09-3.43,2.68-5.75,2.81a1.53,1.53,0,0,0-1,.69c-2.2,2.8-5.53,3.62-8.59,4.93Z" transform="translate(-486.04 -134.35)"/><path class="cls-11" d="M643.52,286a6.32,6.32,0,0,1,2.71-3.49c7.83-5.84,14.93-12.66,24.07-16.72,4.6-2,9-4.7,13.66-6.59,5.75-2.31,11.44-4.91,17.72-5.72a48.51,48.51,0,0,0,6.92-1.87,59.89,59.89,0,0,1,15-2c6.83-.21,13.66-.05,20.5-.05a72.36,72.36,0,0,1,18.49,2.11,61.82,61.82,0,0,0,9.43,2.06,14.06,14.06,0,0,1,6.33,2.12,12.38,12.38,0,0,0,5.62,1.9c2.45.22,4.52,1.42,6.68,2.58,3.86,2.08,7.56,4.52,11.78,5.92a10.63,10.63,0,0,1,2.18,1.16c6.71,4.17,12.66,9.4,19.15,13.88,1.36.94,2.17,2.54,3.73,3.28a11,11,0,0,1-4,1c-2.58-.17-3.91-1.92-5.67-3.61a62.46,62.46,0,0,0-11.32-8.35c-4.08-2.41-8.48-4.29-12.45-6.74-4.35-2.7-9.31-3.88-13.6-6.6-2.61-1.65-6-1-8.89-2.22-8.19-3.38-17.11-2.84-25.55-4.85-8.68-2.06-17.32-1.47-25.89.72a25.5,25.5,0,0,1-8.87.85c-2.55-.24-4.86,1.07-7.15,1.81-4.43,1.42-8.9,2.69-13.35,4-5.26,1.59-10.07,4.22-14.94,6.67a106.23,106.23,0,0,0-19,12c-2.3,1.85-4.82,3.34-6.31,6.09-.63,1.17-2.54.54-3.63,1.38A9.39,9.39,0,0,1,643.52,286Z" transform="translate(-486.04 -134.35)"/><path class="cls-14" d="M562.62,453.77c-1.63.66-1.67-.94-1.76-1.59-.52-4-2.86-7.24-3.86-11-1.93-7.29-3.94-14.55-5.44-21.95-1.65-8.17-2.2-16.42-2.77-24.73-.33-4.79-1.2-9.64-.64-14.37,1.07-9.06.89-18.21,2.6-27.23,1.24-6.52,2.92-12.92,4.31-19.39a21,21,0,0,1,2.1-6.1c1.45-2.5-.36-4-1.13-5.89l7.6,7.42a5.86,5.86,0,0,1,.09,4.78,27.11,27.11,0,0,0-1.47,7.82,5,5,0,0,1-.28,1.72,65.89,65.89,0,0,0-3.78,20.49c-.19,3.87-1.45,7.61-1.57,11.57-.13,4.19,0,8.39-.1,12.58-.14,4,.18,8.1-.23,12.18s.14,8.4,0,12c-.13-2.49.23-5.6-.18-8.7-.07-.54.16-1,.86-.83a217.71,217.71,0,0,0,1.12,28.77c.46.84-.08,1.84.43,2.67A123.81,123.81,0,0,0,562.62,453.77Z" transform="translate(-486.04 -134.35)"/><path class="cls-22" d="M641.64,396.4c5.35,4.08,10.68,8.18,16.06,12.22a7.19,7.19,0,0,1,2.6,3.52c4.67,13.26,9.42,26.49,14.12,39.74.93,2.62,1.37,5.41,2.66,7.9.21.58.33,1.18-.3,1.55s-1.11-.05-1.48-.53c-1.52-2-3.39-3.58-4.72-5.76a19.84,19.84,0,0,0-5.34-5.35c-3.36-2.45-5.44-5.83-7.79-9-1.38-1.86-3-3.58-4.18-5.53-2.91-4.65-4.77-9.82-7-14.79-3.2-6.94-4.39-14.42-6.44-21.66C639.17,396.59,639.38,396.34,641.64,396.4Z" transform="translate(-486.04 -134.35)"/><path class="cls-21" d="M641.64,396.4c-1.67,1.49-.18,3.33.28,4.27,1.33,2.71,1.21,5.63,1.73,8.37.83,4.44,3.12,8.21,4.54,12.34a60.24,60.24,0,0,0,4.36,9.73c2.27,4.06,5.36,7.49,7.83,11.38a27.19,27.19,0,0,0,6.76,6.73c3.36,2.57,5.67,6.35,8.31,9.71.35.44.54,1.65,1.63.85a74.59,74.59,0,0,1,3.45,9.63c-.5,1.56-1.22.45-1.87.15-3.37-1.56-5.63-4.61-8.76-6.51-2.56-1.56-5.1-3.16-6.24-6.17a.69.69,0,0,0-.32-.37c-5.65-2.27-6.56-9.14-11.61-12-1-3.61-4.15-5.94-5.49-9.36-1-2.46-1.65-5.05-3.53-7.09a6.39,6.39,0,0,1-1.09-2.49c-.94-3.09-1.64-6.25-3.13-9.17a12.35,12.35,0,0,1-1.52-5.74,4.24,4.24,0,0,0-.84-2.83c-2.48-2.84-2.19-6.25-2.18-9.62a6.41,6.41,0,0,0-.58-2.9A7.34,7.34,0,0,1,633,390C635.86,392.13,639.06,393.85,641.64,396.4Z" transform="translate(-486.04 -134.35)"/><path class="cls-21" d="M838.34,393.89a74.77,74.77,0,0,1-2.06,14,83.3,83.3,0,0,1-9.74,24.43c-3.6,6.06-6.93,12.4-11.34,17.85-5.13,6.32-10.81,12.28-17.82,16.82-2.11,1.38-4.9,2.66-5.51,5.82-.58-.67-.28-1.37-.44-2l.09-.86c.59-1.17-.1-2.49.43-3.68a11.21,11.21,0,0,1,.46-4c1-5,5.52-7,8.61-10.29,5.27-5.52,10.56-11,14.27-17.81,2.18-4,4.07-8.13,6.06-12.22a4.32,4.32,0,0,1,.46-.88c3.65-4.14,4.4-9.39,5.54-14.49.33-1.48,1.43-2.53,2.29-3.7.69-.93,1.74-1.54,2.3-2.59A66.66,66.66,0,0,1,838.34,393.89Z" transform="translate(-486.04 -134.35)"/><path class="cls-23" d="M797.94,215.14c.34-.38.77-.77,1.29-.52,5.11,2.48,10.92,3.12,15.71,6.65,2.36,1.74,5.53,2.57,8.2,4.12,6.58,3.81,13.29,7.38,19.44,11.93,8.1,6,15.16,13.16,22.93,19.53a16.1,16.1,0,0,1,2.11,2.45c4,4.9,7.8,9.91,12.9,13.75a32.39,32.39,0,0,1-6.52,1.47c-3.67.87-5.9-1.13-7.63-3.94a13,13,0,0,0-4.47-4.9c-1.24-.7-1.4-2.43-2.55-3.33-3.64-2.83-6.68-6.32-10.3-9.2-2.27-1.82-4.32-4.17-6.85-5.52-4.48-2.39-6.93-7.23-11.71-9.11C820.79,229.13,809.68,221.69,797.94,215.14Z" transform="translate(-486.04 -134.35)"/><path class="cls-23" d="M557,402.5c-1,4,0,8.06-.81,12.06.66-6.37-1.48-12.71-.09-19.11a5.1,5.1,0,0,0-.46-3.88,3.83,3.83,0,0,1-.5-1.9c.15-6.78-.37-13.68.73-20.31s.84-13.68,2.88-20.19c2.09-6.66,2.44-13.72,4.93-20.26,3.18,2.94,6.34,5.89,9.54,8.79a2.1,2.1,0,0,1,.52,2.85,187.27,187.27,0,0,0-14.35,43,70,70,0,0,0-1.37,8c-.43.85,0,1.84-.4,2.7l-.05.76c-.63,1.35.11,2.85-.45,4.2Z" transform="translate(-486.04 -134.35)"/><path class="cls-24" d="M831.94,400.29c-3.21,4.52-3.9,9.93-5.38,15.07a11.54,11.54,0,0,1-1.53,3.39c-3.86,5.43-5.94,11.77-9.2,17.5a40.55,40.55,0,0,1-3.55,5.08,111.47,111.47,0,0,1-18,18.4c-1,.83-.69,2.19-1.47,3.06a.28.28,0,0,1-.21-.07,3.62,3.62,0,0,1-.2-.45l.12-1.33c.52-1,0-2.22.44-3.27a39.2,39.2,0,0,1,.93-7.92c2.9-3.85,6.64-6.95,9.43-10.94,5.17-7.38,10.9-14.42,14.1-23,.6-1.6,2.33-2.2,2.56-3.89l10.17-10.4A3.36,3.36,0,0,1,831.94,400.29Z" transform="translate(-486.04 -134.35)"/><path class="cls-15" d="M669,291c1.7-1.7,3.31-3.53,5.8-4.14.71-.18.87-1,1.31-1.41,1.06-1.06,1.38-3.59,4-1.87.69.44,2.41-.5,3.14-1.62a2.65,2.65,0,0,1,2.68-1.46,6.92,6.92,0,0,0,5.55-1.7c4.28-3.22,9.4-3.95,14.31-5.34a2.79,2.79,0,0,0,1.34-.58c1.52-1.83,3.22-1.7,5.39-1.19a7.9,7.9,0,0,0,6.94-1.88c1.64-1.41,3.22-1.73,4.9-.34a2.35,2.35,0,0,0,3.17.17c1.4-1,2.89-.88,4.53-.82a74.2,74.2,0,0,1,12.61,1.4,3.38,3.38,0,0,0,3-.8,3.2,3.2,0,0,1,4.69.32c.54.53,1.12,1.34,1.84,1.11,2.54-.83,4.42.83,6.58,1.46s4.16-.25,6.24.27c.5.13,1.31-.27,1.58.32,1.06,2.35,3.17,1.91,5.11,2.26,2.86.51,5.09,2.61,7.83,3.51.15.05.25.27.4.3,4.66.95,7.58,5.11,12,6.51,1.61.5,3,1.77,4.42,2.77,1.78,1.23,3.25,3,5.57,3.26l-2.52.94c-2.67-.24-4.4-2.24-6.48-3.53a90.49,90.49,0,0,0-15.67-7.72c-4.6-1.75-9.51-2.88-13.78-5.51-1.78-1.1-3.91-.57-5.86-1A107.38,107.38,0,0,0,727,272.36c-4.3.37-8.67.32-12.78,1.69-6.21,2.08-12.63,3.32-18.89,5.14-.16,0-.38.06-.47.17-2.59,3.24-6.85,2.58-10,4.31a61.19,61.19,0,0,0-8.07,5.18,13.58,13.58,0,0,1-5.2,2.61A4.22,4.22,0,0,1,669,291Z" transform="translate(-486.04 -134.35)"/><path class="cls-1" d="M508,343c-2,3.25-3.11,6.65-2.11,10.54a2.79,2.79,0,0,1-1.39,3c-2.89,1.47-3.3,1.37-4-1a8.86,8.86,0,0,1,.49-3.57c.24,0,.51,0,.58-.26s-.28-.49-.51-.68a45.32,45.32,0,0,1,1.41-8.58c.41-.85.36-1.88,1.13-2.59,1.07-1,.17-1.89-.14-2.82a206.46,206.46,0,0,1,9.78-35.31c2.2-6.11,4.7-12.1,7.44-18,1.35-2.89,1.59-2.91,3.53-.52.47.58.88,1.21,1.32,1.81-1.44,1.27-1.12,3.31-1.66,4.86-1.38,4-4.16,7.35-5.14,11.51-1.16,4.9-3.63,9.38-4.43,14.43-.33,2-1.43,4-2.13,6.07a63.75,63.75,0,0,0-3.65,15c-.11,1.27-.07,2.54-1.51,3.14A2.07,2.07,0,0,0,508,343Z" transform="translate(-486.04 -134.35)"/><path class="cls-25" d="M823.42,539.38a4,4,0,0,1-3.13,4.19c-2.44.78-4.41,2.47-6.75,3.54-11,5-22.66,8.32-34,12.36a27.78,27.78,0,0,1-4.61.84c.32-3.41,1.45-6.65,2.08-10,.21-1.14,1-1.38,2-1.46a217.23,217.23,0,0,0,30.52-5C814.25,542.77,818.78,540.9,823.42,539.38Z" transform="translate(-486.04 -134.35)"/><path class="cls-26" d="M830.49,238.52a3,3,0,0,1,3,.77c1.86,1.56,4.1,2.55,5.69,4.6,1,1.33,3.08,1.71,4.58,2.93,2.22,1.8,4.24,3.79,6.44,5.58,1.72,1.39,3.53,2.5,4.93,4.39,1.16,1.54,3.32,2.34,4.55,4.06,2.26,3.18,5.75,5.25,7.72,8.79a10.54,10.54,0,0,0,6.6,4.88c-3.63.85-7.28,1.67-10.9,2.57a2.11,2.11,0,0,1-2.62-1.24,182,182,0,0,0-26.27-33.7C833,240.91,831.36,240.1,830.49,238.52Z" transform="translate(-486.04 -134.35)"/><path class="cls-27" d="M820,412a40.85,40.85,0,0,1-4.09,10.46,92,92,0,0,1-8.18,12.44,62,62,0,0,0-4.63,6.4c-2.2,3.75-6,5.92-8.59,9.26-.49.62-.38-.5-.6-.77L794,449c.64-1.16-.08-2.49.47-3.66l.84-7.92a2.89,2.89,0,0,1,.8-1.78Z" transform="translate(-486.04 -134.35)"/><path class="cls-1" d="M500.52,355.48c1.15,1.1,2.76.32,4,1a21.1,21.1,0,0,0-.15,8.19,4.57,4.57,0,0,1-.64,3.3c-1.39,2.46-.7,5.2-.46,7.82.32,3.47,1.39,7,.55,10.41-.88,3.57-.72,7.1-.79,10.66a4.55,4.55,0,0,0,.93,3.52,2.87,2.87,0,0,1,.45,2.61,40.7,40.7,0,0,0-.39,7.48c-.92.48-1.17,1.55-1.88,2.22-.8-.59.1-2.11-1.31-2.23a5.09,5.09,0,0,0-.34,1.12A64.29,64.29,0,0,1,499.32,401,221.63,221.63,0,0,1,500.52,355.48Z" transform="translate(-486.04 -134.35)"/><path class="cls-1" d="M503.48,337c2.52.94,2.74,1.73.87,3.45-.56.52-1.18.92-.72,1.8.29.56.93,1.31,0,1.6-1.1.34-.92-.8-1.12-1.44A19.5,19.5,0,0,1,503.48,337Z" transform="translate(-486.04 -134.35)"/><path class="cls-17" d="M935,424.46c-1.05-.85,0-2.06-.51-3l.44-1.08c.72-.26.63-.84.55-1.42.14-.36.28-.73.43-1.1.45.11.47-1,1.09-.39a2.1,2.1,0,0,1-.12,3.05C935.85,421.61,935.57,423.13,935,424.46Z" transform="translate(-486.04 -134.35)"/><path class="cls-5" d="M949.49,370.48H949a1.37,1.37,0,0,1,0-1.6,1.15,1.15,0,0,1,0-.41c.56-.82,0-1.83.44-2.67A12.5,12.5,0,0,1,950,361C950.18,364.17,951.24,367.39,949.49,370.48Z" transform="translate(-486.04 -134.35)"/><path class="cls-1" d="M501.08,351c2.17-.12,2.23-.07,3.05,3.11-1.13-.93-3-.07-3.12-2.17C501,351.6,501.06,351.28,501.08,351Z" transform="translate(-486.04 -134.35)"/><path class="cls-6" d="M686.52,194.51c2.16-.84,4.4-.39,6.61-.45A27.12,27.12,0,0,1,686.52,194.51Z" transform="translate(-486.04 -134.35)"/><path class="cls-17" d="M768.91,583.88l1.59,1a1.87,1.87,0,0,1-2,.5.29.29,0,0,1-.51,0Z" transform="translate(-486.04 -134.35)"/><path class="cls-6" d="M698.55,194a8.59,8.59,0,0,1,5.42,0Z" transform="translate(-486.04 -134.35)"/><path class="cls-17" d="M940.37,404.89a1.59,1.59,0,0,1-.83,2.57A5.28,5.28,0,0,1,940.37,404.89Z" transform="translate(-486.04 -134.35)"/><path class="cls-7" d="M920,268c1.49-.66,3.07-.45,4.64-.43A12.76,12.76,0,0,1,920,268Z" transform="translate(-486.04 -134.35)"/><path class="cls-12" d="M551.11,316.33l-.58,1.16A2.38,2.38,0,0,1,550,315Z" transform="translate(-486.04 -134.35)"/><path class="cls-19" d="M769.5,580.92a2.16,2.16,0,0,1-.59,2.56C768.51,582.49,769.16,581.74,769.5,580.92Z" transform="translate(-486.04 -134.35)"/><path class="cls-18" d="M935.46,419c.71.83.83,1.41-.55,1.42C935.09,419.9,935.28,419.43,935.46,419Z" transform="translate(-486.04 -134.35)"/><path class="cls-19" d="M768,585.42h.51a2.23,2.23,0,0,1-1.41,2Z" transform="translate(-486.04 -134.35)"/><path class="cls-14" d="M557.07,399.17a9.1,9.1,0,0,1,.45-4.2A11,11,0,0,1,557.07,399.17Z" transform="translate(-486.04 -134.35)"/><path class="cls-7" d="M559,244.44c-.17-.42-.76-.89-.18-1.28s.91.23,1.35.44Z" transform="translate(-486.04 -134.35)"/><path class="cls-24" d="M794.46,445.3A7.39,7.39,0,0,1,794,449,8.94,8.94,0,0,1,794.46,445.3Z" transform="translate(-486.04 -134.35)"/><path class="cls-10" d="M728.34,195.07a7.57,7.57,0,0,1,3.65.43A8.7,8.7,0,0,1,728.34,195.07Z" transform="translate(-486.04 -134.35)"/><path class="cls-10" d="M722.83,194.57a7.9,7.9,0,0,1,3.64.39A9.76,9.76,0,0,1,722.83,194.57Z" transform="translate(-486.04 -134.35)"/><path class="cls-17" d="M937.38,413.91c.54.64.83,1.24-.31,1.55A2,2,0,0,1,937.38,413.91Z" transform="translate(-486.04 -134.35)"/><path class="cls-16" d="M792,466.26a7.55,7.55,0,0,1-.43,3.68A9,9,0,0,1,792,466.26Z" transform="translate(-486.04 -134.35)"/><path class="cls-5" d="M949,371.48c-.11.76.26,1.74-.91,2,.14-.68.29-1.35.44-2C948.66,371.12,948.82,371.12,949,371.48Z" transform="translate(-486.04 -134.35)"/><path class="cls-15" d="M805.11,291.06c.12-1.23.82-.74,1.43-.48Z" transform="translate(-486.04 -134.35)"/><path class="cls-18" d="M937,417.46l-1.09.39.54-1.42C936.61,416.78,936.8,417.12,937,417.46Z" transform="translate(-486.04 -134.35)"/><path class="cls-18" d="M939,409.45c.26.63.39,1.23-.5,1.47Z" transform="translate(-486.04 -134.35)"/><path class="cls-6" d="M681.54,195a6.91,6.91,0,0,1,3.19-.39A7.51,7.51,0,0,1,681.54,195Z" transform="translate(-486.04 -134.35)"/><path class="cls-15" d="M808.06,290c.25-.91.84-.74,1.47-.47Z" transform="translate(-486.04 -134.35)"/><path class="cls-21" d="M793,457.67a7.13,7.13,0,0,1-.44,3.27A7.3,7.3,0,0,1,793,457.67Z" transform="translate(-486.04 -134.35)"/><path class="cls-3" d="M949.43,365.8a5.21,5.21,0,0,1-.44,2.67A6,6,0,0,1,949.43,365.8Z" transform="translate(-486.04 -134.35)"/><path class="cls-12" d="M558.5,433.94a5.44,5.44,0,0,1-.43-2.67A5.68,5.68,0,0,1,558.5,433.94Z" transform="translate(-486.04 -134.35)"/><path class="cls-14" d="M557.57,394.21a5.91,5.91,0,0,1,.4-2.7A6.09,6.09,0,0,1,557.57,394.21Z" transform="translate(-486.04 -134.35)"/><path class="cls-10" d="M739.88,196.56a5.18,5.18,0,0,1,2.63.46A5.79,5.79,0,0,1,739.88,196.56Z" transform="translate(-486.04 -134.35)"/><path class="cls-10" d="M732.82,195.57a5.64,5.64,0,0,1,2.66.4A5.62,5.62,0,0,1,732.82,195.57Z" transform="translate(-486.04 -134.35)"/><path class="cls-11" d="M788,501.3a5.23,5.23,0,0,1-.45,2.64A5.57,5.57,0,0,1,788,501.3Z" transform="translate(-486.04 -134.35)"/><path class="cls-3" d="M949,371.48h-.47c.15-.87.29-1.73.44-2.6,0,.53,0,1.06,0,1.6C949,370.81,949,371.14,949,371.48Z" transform="translate(-486.04 -134.35)"/><path class="cls-1" d="M508,343c-1.45-.62-1.61-1.68-1-3A5.36,5.36,0,0,0,508,343Z" transform="translate(-486.04 -134.35)"/><path class="cls-7" d="M720,152a4.12,4.12,0,0,1,2.77-.35c-1,.58-1.91.24-2.77.35Z" transform="translate(-486.04 -134.35)"/><path class="cls-28" d="M735.94,337.39c1.71,0,3.28.13,4.6,1.51.79.83,2.05.69,3.1.56,4.22-.57,7.4,2,11,3.48.37.16.65.6,1,.68,7.59,1.66,11.39,8.3,16.76,12.84a7.67,7.67,0,0,1,2.16,3.6c1.1,3.87,3.15,7.24,5.18,10.64a4.08,4.08,0,0,1,.64,2.37c-.54,4.51,1.22,8.93.6,13.4-.68,4.92-.24,10.09-2.43,14.69-1.49,3.12-2.27,6.55-5.13,9.17-2,1.83-2.77,4.94-5.07,6.92-3,2.56-6,5-9.71,6.21a17.23,17.23,0,0,0-6.13,3.57c-.31.27-.66.73-1,.72-4.23-.22-7.66,3-11.92,2.74a37.14,37.14,0,0,0-8.22.36c-1.32.23-2.82.31-3.8-.71a7.18,7.18,0,0,0-5.88-2.05c-2.58.11-4.7-1-6.71-2.35a62.57,62.57,0,0,1-17.2-16.32c-1.51-2.18-3.95-4-4.55-6.59-1.26-5.51-4.61-10.62-3.3-16.67a11.42,11.42,0,0,0,0-4.73c-1-4.47.9-8.08,2.92-11.77a37.45,37.45,0,0,0,3.2-7.25,16.15,16.15,0,0,1,2.78-4.82c3.56-5,8.44-8.6,12.8-12.74a3,3,0,0,1,2-.81c1.58,0,3-.37,3.78-1.91.18-.33.65-.77.94-.74,2.79.31,4.93-1.87,7.64-1.9,2.44,0,5,.39,7-1.65C733.62,337.29,735,337.52,735.94,337.39Z" transform="translate(-486.04 -134.35)"/><path class="cls-28" d="M780.92,387.74a3.87,3.87,0,0,1,.3,2.95C781.09,389.41,781,388.7,780.92,387.74Z" transform="translate(-486.04 -134.35)"/><path class="cls-7" d="M746.22,157.79c.46.11,1.13.05,1.09.72s-.66.67-1.15.68-1.09-.13-1.08-.75S745.72,157.82,746.22,157.79Z" transform="translate(-486.04 -134.35)"/><path class="cls-7" d="M576.11,224.93c-.52,0-.79-.27-.75-.77a.85.85,0,0,1,.81-.81c.5,0,.81.24.76.75A1,1,0,0,1,576.11,224.93Z" transform="translate(-486.04 -134.35)"/><path class="cls-7" d="M596.09,206.41a.83.83,0,0,1-.76.82c-.36.06-.69-.08-.7-.48a.83.83,0,0,1,.76-.83A.55.55,0,0,1,596.09,206.41Z" transform="translate(-486.04 -134.35)"/><path class="cls-7" d="M567.76,232.09a2.14,2.14,0,0,1-.16-.39s.15-.15.17-.13a2.85,2.85,0,0,1,.33.25Z" transform="translate(-486.04 -134.35)"/><path class="cls-7" d="M599.07,203.22l-.37.2a1.76,1.76,0,0,1-.1-.2c.11-.08.24-.15.36-.22Z" transform="translate(-486.04 -134.35)"/><path class="cls-1" d="M549.46,251.87l-.19.11a3.65,3.65,0,0,1-.18-.34l.19-.1Z" transform="translate(-486.04 -134.35)"/><path class="cls-17" d="M804.5,575.42a53.65,53.65,0,0,1,8.13-3.68,116.21,116.21,0,0,0,13-5.79c7.1-3.77,14.29-7.36,20.94-12,2.84-2,6-3.62,8.68-5.77,4.74-3.73,9.61-7.34,14-11.43,2.87-2.66,6.35-4.68,8.77-7.71,5.93-7.44,13.37-13.51,18.86-21.4,2.27-3.27,4.95-6.53,6.94-9.84,5.58-9.28,11.44-18.44,16-28.35,1.45-3.16,2.33-6.58,4.23-9.54.69,2.73-1,4.83-2.12,7-2,4.08-4.18,8.12-6,12.31-1.52,3.46-4.12,6.24-5.71,9.64a87.44,87.44,0,0,1-5.14,8.72c-1.72,2.78-3.7,5.47-5.64,8.14a197.42,197.42,0,0,1-14.66,17.59A149.51,149.51,0,0,1,869.25,538a33,33,0,0,0-4.16,3.57c-1.73,2-4.31,3-6,4.77-2.49,2.67-5.59,4.25-8.42,6.31-5.37,3.9-11.39,6.68-17.09,10a133,133,0,0,1-16.09,7.88C813.24,572.34,809,574.34,804.5,575.42Z" transform="translate(-486.04 -134.35)"/><path class="cls-17" d="M924.49,459c3.82-10.68,7.08-21.53,10-32.49a3,3,0,0,1,.37,2.61c-2,7.26-3.91,14.57-6.78,21.57-.79,1.91-1.35,3.91-2,5.88A4.33,4.33,0,0,1,924.49,459Z" transform="translate(-486.04 -134.35)"/><path class="cls-17" d="M771,584.92c2.94-2.5,6.7-2.2,10.15-2.95a16.26,16.26,0,0,0,3-.41c5.88-2.58,12.42-3.13,18.24-5.88a2.82,2.82,0,0,1,2.16-.26,25,25,0,0,1-8,3.32,72.71,72.71,0,0,0-9.06,2.61C782.15,583.37,776.39,583.29,771,584.92Z" transform="translate(-486.04 -134.35)"/><path class="cls-17" d="M934.48,426c.17-.5.34-1,.5-1.5A1,1,0,0,1,934.48,426Z" transform="translate(-486.04 -134.35)"/></svg>